<svg width="24" height="24" viewBox="0 0 24 24" fill="none" xmlns="http://www.w3.org/2000/svg">
<rect width="24" height="24" rx="12" fill="url(#paint0_linear_869_5351)"/>
<path d="M12.3033 8.14821C12.5418 7.74994 12.9192 7.17994 13.3959 6.633H13.3964C13.8001 6.16881 14.5907 5.57304 14.5907 5.57304C14.7095 5.48324 14.6968 5.35817 14.5617 5.29523L13.6061 4.84867C13.471 4.78546 13.2874 4.83158 13.1978 4.95068C13.1978 4.95068 12.4911 5.96452 11.6593 8.12271C9.0873 6.95938 6.64258 8.5888 6.64258 11.4222C6.64258 14.3818 8.91964 18.8775 11.9989 17.5205C15.2421 18.9239 17.3569 14.3821 17.3569 11.4222C17.3569 8.56438 15.1594 6.88884 12.3033 8.14821Z" fill="white"/>
<defs>
<linearGradient id="paint0_linear_869_5351" x1="0" y1="0" x2="27.8179" y2="5.85218" gradientUnits="userSpaceOnUse">
<stop stop-color="#0F80D3"/>
<stop offset="1" stop-color="#1386D9"/>
</linearGradient>
</defs>
</svg>
