<svg id="bone-and-joint-health-logo" data-name="Bone and Joint Health Logo" xmlns="http://www.w3.org/2000/svg" viewBox="0 0 50 50">
  <defs>
    <style>
      .bone-and-joint-health-logo-1 {
        fill: none;
        stroke: #fff;
        stroke-width: 2px;
      }
      .bone-and-joint-health-logo-2 {
        fill: #fff;
      }
    </style>
  </defs>
  <title>Bone and Joint Health Logo</title>
  <path class="bone-and-joint-health-logo-1" d="M25,49A24,24,0,1,0,1,25,24,24,0,0,0,25,49Z" />
  <path class="bone-and-joint-health-logo-2" d="M40.3,20.9a27.46,27.46,0,0,1,.42,5.28,15.58,15.58,0,0,1-15.65,14.7c-1.41,0-2.81-.53-4.44-.32-.75,1.79,4.29,1.71,5.92,1.59,9.9-.76,17.6-10.27,14.7-21.57h-.74a.3.3,0,0,0-.17.12A.28.28,0,0,0,40.3,20.9ZM24.12,8.21c-9.38.6-16.87,8-16.07,18.4a9.13,9.13,0,0,0,1.16,4.23c1.24-.18.61-1.17.43-1.91a17.67,17.67,0,0,1-.43-5.18,15.59,15.59,0,0,1,5.46-10.83A15.53,15.53,0,0,1,26.23,9.27c.88.06,2.11.71,2.43-.32-.8-1.06-3.13-.83-4.54-.74Zm12.26-1.9A30.58,30.58,0,0,1,33,9.8c-1,1-2.33,2.62-3.91,2.85-1.14.17-2.61-.2-4-.1-2.26.15-4.92.77-4.86,2.53,0,1.44,1.89,1.68,2.75,2.33a6.4,6.4,0,0,1,2.64,3.91c.31,2.73.11,5.16,1.37,7.51a6.6,6.6,0,0,0,8.36,3A3.28,3.28,0,0,0,37,30.52c.82-1.75.17-4.53.21-6.55.07-3.36,2.1-4.72,3.8-6.45,1-1.05,1.89-2,3.18-3.07a22.67,22.67,0,0,1,2.33,14.48A21.07,21.07,0,0,1,29.3,46.48a22.51,22.51,0,0,1-14.38-1.9c1.07-1.3,2-2,3.28-3.28.95-1,2.17-2.57,3.7-2.85a18.53,18.53,0,0,1,3.06.1c2.62,0,6.13-.58,6-2.64-.06-1.3-1.41-1.4-1.9-1.69a6.66,6.66,0,0,1-3.6-5.29c-.27-2.91-.29-5.1-1.48-7.08a6.79,6.79,0,0,0-2-2,6.72,6.72,0,0,0-2.66-1c-2.25-.28-4.51.36-5.18,1.8-.9,1.94,0,5.32-.32,7.72S11.43,32.22,10,33.69A29.91,29.91,0,0,1,6.57,37,22.84,22.84,0,0,1,3.51,20.9,21.91,21.91,0,0,1,23.91,3.14c5-.32,9.05,1.34,12.47,3.17" />
</svg>
