<svg width="50" height="50" viewBox="0 0 50 50" fill="none" xmlns="http://www.w3.org/2000/svg">
<path d="M25 49C38.2548 49 49 38.2548 49 25C49 11.7452 38.2548 1 25 1C11.7452 1 1 11.7452 1 25C1 38.2548 11.7452 49 25 49Z" stroke="#F9423A" stroke-width="2"/>
<path d="M40.2959 20.8986C40.611 22.6422 40.7524 24.4128 40.7182 26.1844C40.4914 30.1728 38.7414 33.9217 35.8296 36.6567C32.9179 39.3917 29.0669 40.9039 25.0721 40.8808C23.6581 40.8847 22.2557 40.3528 20.6321 40.563C19.8778 42.3455 24.9191 42.2748 26.5523 42.1489C36.4494 41.3861 44.145 31.8821 41.2475 20.582H40.5074C40.4398 20.6002 40.3811 20.6423 40.3423 20.7005C40.3035 20.7588 40.2866 20.8292 40.2959 20.8986ZM24.1206 8.21294C14.7353 8.80646 7.25116 16.2218 8.05094 26.608C8.08511 28.0921 8.48457 29.5449 9.21397 30.8378C10.4464 30.6555 9.8224 29.6748 9.63689 28.9347C9.23803 27.2388 9.09547 25.4927 9.21397 23.7546C9.35318 21.6761 9.90738 19.6466 10.8438 17.7858C11.7803 15.925 13.0801 14.2707 14.6664 12.9206C16.2528 11.5704 18.0935 10.5517 20.08 9.92463C22.0665 9.29757 24.1586 9.07484 26.2326 9.26959C27.1141 9.33446 28.3433 9.9831 28.6643 8.9524C27.8607 7.89316 25.5288 8.12343 24.118 8.21229L24.1206 8.21294ZM36.3839 6.30981C35.3389 7.70959 34.3478 8.45035 33.0012 9.79889C32.0133 10.7861 30.6661 12.4175 29.0892 12.6529C27.9476 12.8242 26.4797 12.4532 25.0721 12.5472C22.8103 12.699 20.1508 13.3185 20.2073 15.0847C20.2546 16.5221 22.102 16.7647 22.9556 17.4108C24.1063 18.28 25.4172 19.7427 25.5982 21.3221C25.9121 24.0503 25.7072 26.4802 26.9727 28.8289C28.27 31.2361 31.75 33.3935 35.3253 31.7881C36.0147 31.5656 36.61 31.119 37.0163 30.5193C37.8362 28.7745 37.1863 25.993 37.2278 23.968C37.2972 20.6125 39.3281 19.2471 41.0334 17.5191C42.0713 16.4683 42.9249 15.5414 44.2053 14.4529C46.5738 18.8855 47.3938 23.9822 46.5353 28.934C44.854 38.2039 38.47 44.6754 29.3007 46.4845C24.4903 47.4322 18.9872 46.7569 14.9221 44.5814C15.9949 43.2776 16.918 42.6088 18.1997 41.3025C19.1487 40.336 20.3668 38.7293 21.897 38.4484C22.7895 38.2849 24.0375 38.5541 24.9632 38.5541C27.5772 38.5541 31.0864 37.9703 30.9891 35.9115C30.9281 34.6142 29.5757 34.513 29.086 34.2192C27.2639 33.1262 25.7396 31.5714 25.4918 28.934C25.2181 26.019 25.2038 23.8343 24.0116 21.8508C23.5022 21.0354 22.823 20.3395 22.0203 19.8104C21.2176 19.2813 20.3103 18.9314 19.3601 18.7846C17.1074 18.5005 14.8475 19.1401 14.1794 20.582C13.2823 22.5195 14.1599 25.897 13.8628 28.3009C13.5508 30.8378 11.4272 32.2181 9.95148 33.6919C8.91083 34.8707 7.7796 35.9664 6.56813 36.9688C3.59959 32.1734 2.50869 26.4497 3.50521 20.8986C4.42884 16.0824 6.94121 11.7152 10.6403 8.49578C14.3395 5.27632 19.0116 3.39067 23.9091 3.14051C28.9426 2.81619 32.9571 4.47738 36.3839 6.31305" fill="#F9423A"/>
</svg>
