<svg width="12" height="16" viewBox="0 0 12 16" fill="none" xmlns="http://www.w3.org/2000/svg">
<path d="M11.2942 0H0.705766C0.315876 0 0 0.32578 0 0.727474V15.2725C0 15.6742 0.316207 16 0.705766 16H11.2942C11.6841 16 12 15.6742 12 15.2725V0.727474C12 0.32578 11.6841 0 11.2942 0ZM10.5881 1.45427V3.63601H1.41153V1.45427H10.5881ZM1.41153 14.5457V5.09062H10.5881V14.5447H1.41153V14.5457Z" fill="#F9423A"/>
<path d="M3.93546 5.73401H2.47007C2.27513 5.73401 2.11719 5.89707 2.11719 6.09758V7.60835C2.11719 7.8092 2.27546 7.97192 2.47007 7.97192H3.93546C4.1304 7.97192 4.28834 7.80886 4.28834 7.60835V6.09758C4.28867 5.89639 4.13107 5.73401 3.93546 5.73401Z" fill="#F9423A"/>
<path d="M6.73298 5.73401H5.26792C5.07298 5.73401 4.91504 5.89707 4.91504 6.09758V7.60835C4.91504 7.8092 5.07298 7.97192 5.26792 7.97192H6.73298C6.92792 7.97192 7.08586 7.80886 7.08586 7.60835V6.09758C7.08619 5.89639 6.92792 5.73401 6.73298 5.73401Z" fill="#F9423A"/>
<path d="M9.52888 5.73401H8.06349C7.86855 5.73401 7.71094 5.89707 7.71094 6.09758V7.60835C7.71094 7.8092 7.86888 7.97192 8.06349 7.97192H9.52888C9.72382 7.97192 9.88176 7.80886 9.88176 7.60835V6.09758C9.88176 5.89639 9.72382 5.73401 9.52888 5.73401Z" fill="#F9423A"/>
<path d="M3.93546 8.69934H2.47007C2.27513 8.69934 2.11719 8.86206 2.11719 9.06257V10.5733C2.11719 10.7742 2.27546 10.9366 2.47007 10.9366H3.93546C4.1304 10.9366 4.28834 10.7738 4.28834 10.5733V9.06257C4.28867 8.86138 4.13107 8.69934 3.93546 8.69934Z" fill="#F9423A"/>
<path d="M6.73298 8.69934H5.26792C5.07298 8.69934 4.91504 8.86206 4.91504 9.06257V10.5733C4.91504 10.7742 5.07298 10.9366 5.26792 10.9366H6.73298C6.92792 10.9366 7.08586 10.7738 7.08586 10.5733V9.06257C7.08619 8.86138 6.92792 8.69934 6.73298 8.69934Z" fill="#F9423A"/>
<path d="M3.93546 11.6648H2.47007C2.27513 11.6648 2.11719 11.8275 2.11719 12.0277V13.5385C2.11719 13.74 2.27546 13.902 2.47007 13.902H3.93546C4.1304 13.902 4.28834 13.739 4.28834 13.5385V12.0277C4.28867 11.8268 4.13107 11.6648 3.93546 11.6648Z" fill="#F9423A"/>
<path d="M6.73298 11.6648H5.26792C5.07298 11.6648 4.91504 11.8275 4.91504 12.0277V13.5385C4.91504 13.74 5.07298 13.902 5.26792 13.902H6.73298C6.92792 13.902 7.08586 13.739 7.08586 13.5385V12.0277C7.08619 11.8268 6.92792 11.6648 6.73298 11.6648Z" fill="#F9423A"/>
<path d="M9.52888 8.69934H8.06349C7.86855 8.69934 7.71094 8.86206 7.71094 9.06257V13.5384C7.71094 13.7399 7.86888 13.902 8.06349 13.902H9.52888C9.72382 13.902 9.88176 13.7389 9.88176 13.5384V9.06257C9.88176 8.86138 9.72382 8.69934 9.52888 8.69934Z" fill="#F9423A"/>
</svg>
