<svg width="50" height="50" viewBox="0 0 50 50" fill="none" xmlns="http://www.w3.org/2000/svg">
<path d="M25 49C38.2548 49 49 38.2548 49 25C49 11.7452 38.2548 1 25 1C11.7452 1 1 11.7452 1 25C1 38.2548 11.7452 49 25 49Z" stroke="#F9423A" stroke-width="2"/>
<path fill-rule="evenodd" clip-rule="evenodd" d="M36.9311 22.5293C36.6373 23.7227 35.1921 23.7648 33.7469 23.8069L33.7371 23.8072C34.305 24.6527 34.9462 25.4467 35.6532 26.1799C35.8194 26.3687 36.0108 26.5526 36.2045 26.7386C36.7809 27.2922 37.3774 27.8651 37.3871 28.6448C36.68 28.9205 36.2981 28.3786 36.0005 27.9562L36.0004 27.9561L36.0003 27.9559C35.943 27.8747 35.8889 27.7978 35.8362 27.7321C33.8189 25.3208 31.4488 23.2282 28.8061 21.5252C28.5417 21.3469 28.1994 21.1505 27.838 20.943C26.9582 20.438 25.9648 19.8678 25.7036 19.3354C25.3081 18.5308 25.4376 13.8081 25.5441 9.9221V9.92206V9.92203V9.92197V9.9219V9.92182V9.92171C25.6007 7.85525 25.6509 6.02547 25.6122 5.14748C25.6037 4.95422 25.5869 4.75998 25.5703 4.5685L25.5703 4.56838L25.5703 4.56834C25.547 4.29839 25.5241 4.03393 25.5256 3.78542C25.2001 3.77737 24.8747 3.77681 24.5496 3.78372C24.6114 4.53448 24.5745 5.46547 24.545 6.21177C24.5313 6.55766 24.5192 6.86388 24.5192 7.09411C24.5192 7.66439 24.5409 8.61163 24.5667 9.73323V9.73327C24.6439 13.0946 24.7571 18.0218 24.4284 19.0617C24.1779 19.8521 23.1591 20.4285 22.2326 20.9526L22.2325 20.9526C21.9425 21.1167 21.6616 21.2756 21.416 21.4344C18.7299 23.1122 16.3274 25.2062 14.2984 27.6381C14.2225 27.7294 14.1483 27.8342 14.0718 27.9423C13.7591 28.3837 13.4078 28.8797 12.7474 28.7331C12.7112 27.8034 13.3934 27.1104 14.0047 26.4893C14.1391 26.3528 14.2701 26.2198 14.3892 26.0885C15.1374 25.3739 15.8385 24.6117 16.4883 23.8065C15.0612 23.8065 13.3138 23.6359 13.2035 22.6202C13.6692 22.128 14.2355 22.4011 14.7483 22.6484C14.979 22.7597 15.1989 22.8658 15.394 22.8945C16.2626 22.9921 17.1418 22.8664 17.9484 22.5293C19.2502 22.0074 20.5803 20.9803 21.7663 20.0646L21.7664 20.0646C22.3993 19.5759 22.9912 19.1189 23.5157 18.7873C23.5381 17.6483 23.5277 15.5774 23.5161 13.2664V13.2663V13.2662V13.2661V13.266C23.4993 9.926 23.4801 6.08428 23.5535 3.82832C21.2709 3.98434 19.0161 4.50929 16.8795 5.39431C13.0018 7.00049 9.68753 9.72046 7.35571 13.2103C5.0239 16.7001 3.7793 20.803 3.7793 25.0001C3.77947 30.6283 6.01532 36.0259 9.99503 40.0056C13.9747 43.9853 19.3723 46.2211 25.0005 46.2213C29.1976 46.2213 33.3005 44.9767 36.7903 42.6449C40.2802 40.3131 43.0001 36.9988 44.6063 33.1211C46.2125 29.2435 46.6327 24.9766 45.8139 20.8601C44.9951 16.7436 42.974 12.9623 40.0061 9.99448C37.0383 7.02665 33.257 5.00552 29.1405 4.1867C28.2871 4.01694 27.4272 3.90043 26.5656 3.83672C26.5606 3.92439 26.5544 4.01309 26.5482 4.10131L26.5482 4.10135V4.10136V4.10138V4.1014C26.5385 4.23983 26.5288 4.37706 26.5242 4.50726C26.4522 6.58943 26.4048 16.098 26.4327 18.0562C26.4489 19.1788 27.5941 19.7954 28.7023 20.392C29.0572 20.5831 29.4084 20.7722 29.7175 20.9752C29.9616 21.1358 30.2012 21.3067 30.4415 21.4781C31.7133 22.3852 33.0058 23.3072 35.1012 22.7998C35.2908 22.7541 35.4777 22.653 35.6635 22.5524C36.0839 22.3251 36.4988 22.1006 36.9265 22.5261L36.9311 22.5293ZM12.7474 28.7331L12.7475 28.735L12.7469 28.733L12.7474 28.7331ZM9.64439 37.3133H16.9449L16.9462 37.31C21.9084 36.4622 22.1348 30.878 22.0569 24.9896C21.6148 24.9407 21.07 25.4554 20.6917 25.8129L20.6917 25.8129L20.6917 25.8129C20.6588 25.844 20.6271 25.874 20.5968 25.9022C20.5842 26.3045 20.5748 26.7066 20.5654 27.1059L20.5654 27.1062L20.5654 27.1066C20.4798 30.7589 20.3996 34.1832 17.9503 35.4847C16.058 36.49 13.0487 36.1259 10.4294 35.8089L10.4279 35.8087C10.2877 35.7918 10.1486 35.7749 10.0109 35.7585C9.50104 27.1211 11.1434 18.7301 17.22 15.6815L17.2553 15.6638C18.0474 15.2659 19.4359 14.5684 20.1389 15.0426C20.7885 15.4806 20.6716 16.6371 20.5603 17.7378C20.5011 18.3241 20.4434 18.8945 20.5041 19.3321C23.196 19.4151 22.26 13.8517 20.3218 13.4942C15.2662 13.766 12.1845 16.7511 10.3741 21.0692C9.16179 23.9602 8.54882 27.8313 8.54882 32.3855C8.54882 32.8328 8.50774 33.3222 8.4666 33.8125C8.32706 35.4751 8.18668 37.1477 9.64439 37.2218V37.3133ZM40.3073 37.3134H33.0074C28.1588 36.3514 27.9862 30.714 27.9875 24.9021C29.4201 25.1518 29.4611 26.2232 29.5153 27.6402C29.5221 27.8175 29.5291 28.0003 29.5391 28.1875C29.547 28.3359 29.5545 28.4821 29.562 28.6262C29.6724 30.7627 29.759 32.4398 30.6346 33.9359C32.0967 36.4371 36.1709 36.4286 40.0336 35.7612C40.4403 28.0507 39.333 21.0148 35.3802 17.3266C34.0984 16.1311 32.2816 14.8494 29.9964 15.0446C29.4269 15.6018 29.4708 16.5632 29.5166 17.5637C29.5457 18.1996 29.5755 18.8513 29.4489 19.425C28.8871 19.265 28.4013 18.909 28.0796 18.4215C27.9499 15.3015 28.2801 13.0708 31.4565 13.4918C34.6433 13.9153 37.5538 16.962 39.0314 19.6967C40.8204 23.0094 41.4223 27.4935 41.4963 32.2909C41.5025 32.7084 41.5299 33.1326 41.5572 33.5573V33.5573C41.6346 34.7593 41.7123 35.9657 41.314 37.0364C41.1762 37.126 40.9808 37.157 40.7856 37.188H40.7856C40.6133 37.2153 40.4412 37.2426 40.3092 37.3101L40.3073 37.3134ZM35.4834 30.7333C35.9233 31.3391 36.4511 32.0662 37.2956 31.9288H37.2963C37.1007 30.7298 36.1583 29.7051 35.2721 28.7417C35.1856 28.6476 35.0997 28.5542 35.015 28.4612C32.3172 25.4994 28.6628 22.1583 24.7015 20.5211C21.1132 22.6895 17.8814 25.399 15.1203 28.5539C14.9161 28.7889 14.6843 29.0196 14.4486 29.2543C13.6863 30.013 12.8829 30.8126 12.8383 31.9308C13.7721 31.801 14.3718 30.9613 14.9575 30.1414C15.4463 29.457 15.9253 28.7865 16.5804 28.5539C16.5978 28.7471 16.6094 28.9461 16.621 29.1451C16.6849 30.2382 16.7488 31.3318 17.7668 31.4728C17.9279 30.8449 17.7886 30.1853 17.6474 29.5168C17.4896 28.7698 17.3295 28.0118 17.5838 27.2748C17.9325 26.268 19.4889 25.2231 20.6178 24.4652C20.7719 24.3618 20.9181 24.2636 21.0522 24.1717C22.4974 23.1805 23.9192 22.3055 25.0673 21.6173C26.2284 22.3036 27.6061 23.2324 29.0824 24.2638C29.2854 24.4051 29.5081 24.5519 29.74 24.7047C30.8764 25.4535 32.2323 26.3469 32.5501 27.4577C32.7681 28.2175 32.6036 28.9643 32.4433 29.6918C32.3093 30.3001 32.1783 30.895 32.2764 31.4728C33.2132 31.4428 33.3037 30.5665 33.3942 29.6905C33.4405 29.243 33.4867 28.7956 33.6457 28.4612C34.2755 29.0585 34.8273 29.733 35.2881 30.4687C35.3517 30.5518 35.4165 30.6412 35.4834 30.7333Z" fill="#F9423A"/>
</svg>
