<svg id="cancer-treatment-logo" data-name="Cancer Treatment Logo" xmlns="http://www.w3.org/2000/svg" viewBox="0 0 50 50">
  <defs>
    <style>
      .cancer-treatment-logo-shape-1 {
        fill: none;
        stroke: #00263a;
        stroke-width: 2px;
      }
      .cancer-treatment-logo-shape-2 {
        fill: #00263a;
        fill-rule: evenodd;
      }
    </style>
  </defs>
  <title>Cancer Treatment Logo</title>
  <path class="cancer-treatment-logo-shape-1" d="M25,49A24,24,0,1,0,1,25,24,24,0,0,0,25,49Z" />
  <path class="cancer-treatment-logo-shape-2" d="M36.93,22.69c-.29,1.19-1.74,1.23-3.18,1.27h0a17.47,17.47,0,0,0,1.91,2.38c.17.19.36.37.55.56a2.88,2.88,0,0,1,1.19,1.9c-.71.28-1.09-.26-1.39-.69h0l-.16-.22a31.54,31.54,0,0,0-7-6.21c-.27-.18-.61-.37-1-.58a5.88,5.88,0,0,1-2.14-1.61c-.39-.8-.26-5.52-.16-9.41h0c.06-2.07.11-3.9.07-4.78,0-.19,0-.38,0-.57h0a7.21,7.21,0,0,1,0-.79h-1a21.89,21.89,0,0,1,0,2.43c0,.35,0,.65,0,.88,0,.57,0,1.52.05,2.64h0c.07,3.36.19,8.29-.14,9.33-.25.79-1.27,1.37-2.2,1.89-.29.16-.57.32-.81.48A29.75,29.75,0,0,0,14.3,27.8c-.08.09-.15.19-.23.3h0c-.31.44-.66.94-1.32.79A3.19,3.19,0,0,1,14,26.65h0l.39-.4A24,24,0,0,0,16.49,24c-1.43,0-3.18-.17-3.29-1.18.47-.49,1-.22,1.55,0a2.56,2.56,0,0,0,.64.24A5.21,5.21,0,0,0,18,22.69a17.88,17.88,0,0,0,3.82-2.47c.63-.49,1.22-.94,1.75-1.28,0-1.13,0-3.21,0-5.52h0c0-3.34,0-7.18,0-9.43a21.16,21.16,0,1,0,5.59.35A22.35,22.35,0,0,0,26.57,4a2.45,2.45,0,0,0,0,.27h0l0,.4c-.07,2.09-.12,11.6-.09,13.55,0,1.13,1.16,1.74,2.27,2.34h0c.36.19.71.38,1,.58s.48.33.72.51c1.27.9,2.57,1.82,4.66,1.32a2.53,2.53,0,0,0,.56-.25c.42-.23.84-.45,1.27,0Zm-24.18,6.2ZM9.64,37.47H17c5-.85,5.18-6.43,5.11-12.32-.45,0-1,.46-1.37.82h0l-.09.09c0,.4,0,.8,0,1.2h0c-.08,3.66-.16,7.08-2.61,8.38-1.89,1-4.9.64-7.52.33h0l-.42,0c-.51-8.64,1.13-17,7.21-20.08l0,0c.8-.4,2.19-1.09,2.89-.62s.53,1.59.42,2.7a7.35,7.35,0,0,0-.06,1.59c2.7.08,1.76-5.48-.18-5.84-5.05.27-8.14,3.26-10,7.58A30,30,0,0,0,8.55,32.54c0,.45,0,.94-.08,1.43-.14,1.66-.28,3.34,1.17,3.41Zm30.67,0H33c-4.85-1-5-6.6-5-12.41,1.43.25,1.47,1.32,1.52,2.74l0,.54c0,.15,0,.3,0,.44.11,2.14.2,3.82,1.07,5.31,1.47,2.5,5.54,2.5,9.4,1.83.41-7.71-.7-14.75-4.65-18.44A7.15,7.15,0,0,0,30,15.2a3.28,3.28,0,0,0-.48,2.52,7.59,7.59,0,0,1-.07,1.86,2.43,2.43,0,0,1-1.37-1c-.13-3.12.2-5.35,3.38-4.93s6.09,3.47,7.57,6.2c1.79,3.32,2.39,7.8,2.47,12.6,0,.42,0,.84.06,1.26h0a8.56,8.56,0,0,1-.25,3.48,1.52,1.52,0,0,1-.52.16h0a1.35,1.35,0,0,0-.48.12Zm-4.83-6.58c.44.61,1,1.33,1.82,1.2h0a6.83,6.83,0,0,0-2-3.19L35,28.62c-2.69-3-6.35-6.3-10.31-7.94a40.8,40.8,0,0,0-9.58,8c-.2.24-.44.47-.67.7a4.21,4.21,0,0,0-1.61,2.68c.93-.13,1.53-1,2.12-1.79a3.91,3.91,0,0,1,1.62-1.59c0,.19,0,.39,0,.59.06,1.1.13,2.19,1.15,2.33a4.38,4.38,0,0,0-.12-2,4.16,4.16,0,0,1-.07-2.24c.35-1,1.91-2.05,3-2.81l.43-.29c1.45-1,2.87-1.87,4-2.56,1.16.69,2.54,1.62,4,2.65l.66.44c1.14.75,2.49,1.64,2.81,2.76a4.44,4.44,0,0,1-.11,2.23,4.74,4.74,0,0,0-.16,1.78c.93,0,1-.91,1.11-1.78a4,4,0,0,1,.26-1.23,10.6,10.6,0,0,1,1.64,2Z" />
</svg>
