<svg width="40" height="40" viewBox="0 0 16 16" fill="none" xmlns="http://www.w3.org/2000/svg">
<path d="M8 0C9.58225 1.88681e-08 11.129 0.469192 12.4446 1.34824C13.7602 2.22729 14.7855 3.47672 15.391 4.93853C15.9965 6.40034 16.155 8.00887 15.8463 9.56072C15.5376 11.1126 14.7757 12.538 13.6569 13.6569C12.538 14.7757 11.1126 15.5376 9.56072 15.8463C8.00887 16.155 6.40034 15.9965 4.93853 15.391C3.47672 14.7855 2.22729 13.7602 1.34824 12.4446C0.469192 11.129 -3.77363e-08 9.58225 0 8H4C4 8.79113 4.2346 9.56448 4.67412 10.2223C5.11365 10.8801 5.73836 11.3928 6.46927 11.6955C7.20017 11.9983 8.00444 12.0775 8.78036 11.9231C9.55628 11.7688 10.269 11.3878 10.8284 10.8284C11.3878 10.269 11.7688 9.55628 11.9231 8.78036C12.0775 8.00444 11.9983 7.20017 11.6955 6.46927C11.3928 5.73836 10.8801 5.11365 10.2223 4.67412C9.56448 4.2346 8.79113 4 8 4V0Z" fill="#F9423A"/>
</svg>
