<svg width="20" height="26" viewBox="0 0 20 26" fill="none" xmlns="http://www.w3.org/2000/svg">
<path d="M18.8237 0H1.17628C0.526461 0 0 0.527011 0 1.17683V24.7062C0 25.356 0.527012 25.883 1.17628 25.883H18.8237C19.4735 25.883 20 25.356 20 24.7062V1.17683C20 0.527011 19.4735 0 18.8237 0ZM17.6469 2.35255V5.88193H2.35255V2.35255H17.6469ZM2.35255 23.5305V8.23503H17.6469V23.5288H2.35255V23.5305Z" fill="#ED5344"/>
<path d="M6.55975 9.27588H4.11743C3.79253 9.27588 3.5293 9.53966 3.5293 9.86402V12.308C3.5293 12.6329 3.79308 12.8961 4.11743 12.8961H6.55975C6.88466 12.8961 7.14789 12.6323 7.14789 12.308V9.86402C7.14844 9.53856 6.88576 9.27588 6.55975 9.27588Z" fill="#ED5344"/>
<path d="M11.2203 9.27588H8.77857C8.45366 9.27588 8.19043 9.53966 8.19043 9.86402V12.308C8.19043 12.6329 8.45366 12.8961 8.77857 12.8961H11.2203C11.5452 12.8961 11.8085 12.6323 11.8085 12.308V9.86402C11.809 9.53856 11.5452 9.27588 11.2203 9.27588Z" fill="#ED5344"/>
<path d="M15.8815 9.27588H13.4391C13.1142 9.27588 12.8516 9.53966 12.8516 9.86402V12.308C12.8516 12.6329 13.1148 12.8961 13.4391 12.8961H15.8815C16.2064 12.8961 16.4696 12.6323 16.4696 12.308V9.86402C16.4696 9.53856 16.2064 9.27588 15.8815 9.27588Z" fill="#ED5344"/>
<path d="M6.55975 14.0728H4.11743C3.79253 14.0728 3.5293 14.336 3.5293 14.6603V17.1043C3.5293 17.4292 3.79308 17.6919 4.11743 17.6919H6.55975C6.88466 17.6919 7.14789 17.4287 7.14789 17.1043V14.6603C7.14844 14.3349 6.88576 14.0728 6.55975 14.0728Z" fill="#ED5344"/>
<path d="M11.2203 14.0728H8.77857C8.45366 14.0728 8.19043 14.336 8.19043 14.6603V17.1043C8.19043 17.4292 8.45366 17.6919 8.77857 17.6919H11.2203C11.5452 17.6919 11.8085 17.4287 11.8085 17.1043V14.6603C11.809 14.3349 11.5452 14.0728 11.2203 14.0728Z" fill="#ED5344"/>
<path d="M6.55975 18.8701H4.11743C3.79253 18.8701 3.5293 19.1333 3.5293 19.4572V21.9011C3.5293 22.2271 3.79308 22.4893 4.11743 22.4893H6.55975C6.88466 22.4893 7.14789 22.2255 7.14789 21.9011V19.4572C7.14844 19.1322 6.88576 18.8701 6.55975 18.8701Z" fill="#ED5344"/>
<path d="M11.2203 18.8701H8.77857C8.45366 18.8701 8.19043 19.1333 8.19043 19.4572V21.9011C8.19043 22.2271 8.45366 22.4893 8.77857 22.4893H11.2203C11.5452 22.4893 11.8085 22.2255 11.8085 21.9011V19.4572C11.809 19.1322 11.5452 18.8701 11.2203 18.8701Z" fill="#ED5344"/>
<path d="M15.8815 14.0728H13.4391C13.1142 14.0728 12.8516 14.336 12.8516 14.6603V21.9008C12.8516 22.2268 13.1148 22.489 13.4391 22.489H15.8815C16.2064 22.489 16.4696 22.2252 16.4696 21.9008V14.6603C16.4696 14.3349 16.2064 14.0728 15.8815 14.0728Z" fill="#ED5344"/>
</svg>
