<svg width="24" height="24" viewBox="0 0 24 24" fill="none" xmlns="http://www.w3.org/2000/svg">
<mask id="path-1-inside-1" fill="white">
<path fill-rule="evenodd" clip-rule="evenodd" d="M12 22.5C17.799 22.5 22.5 17.799 22.5 12C22.5 6.20101 17.799 1.5 12 1.5C6.20101 1.5 1.5 6.20101 1.5 12C1.5 17.799 6.20101 22.5 12 22.5ZM12 24C18.6274 24 24 18.6274 24 12C24 5.37258 18.6274 0 12 0C5.37258 0 0 5.37258 0 12C0 18.6274 5.37258 24 12 24Z"/>
</mask>
<path fill-rule="evenodd" clip-rule="evenodd" d="M12 22.5C17.799 22.5 22.5 17.799 22.5 12C22.5 6.20101 17.799 1.5 12 1.5C6.20101 1.5 1.5 6.20101 1.5 12C1.5 17.799 6.20101 22.5 12 22.5ZM12 24C18.6274 24 24 18.6274 24 12C24 5.37258 18.6274 0 12 0C5.37258 0 0 5.37258 0 12C0 18.6274 5.37258 24 12 24Z" fill="#8ED081"/>
<path d="M18.5 12C18.5 15.5899 15.5899 18.5 12 18.5V26.5C20.0081 26.5 26.5 20.0081 26.5 12H18.5ZM12 5.5C15.5899 5.5 18.5 8.41015 18.5 12H26.5C26.5 3.99187 20.0081 -2.5 12 -2.5V5.5ZM5.5 12C5.5 8.41015 8.41015 5.5 12 5.5V-2.5C3.99187 -2.5 -2.5 3.99187 -2.5 12H5.5ZM12 18.5C8.41015 18.5 5.5 15.5899 5.5 12H-2.5C-2.5 20.0081 3.99187 26.5 12 26.5V18.5ZM20 12C20 16.4183 16.4183 20 12 20V28C20.8366 28 28 20.8366 28 12H20ZM12 4C16.4183 4 20 7.58172 20 12H28C28 3.16344 20.8366 -4 12 -4V4ZM4 12C4 7.58172 7.58172 4 12 4V-4C3.16344 -4 -4 3.16344 -4 12H4ZM12 20C7.58172 20 4 16.4183 4 12H-4C-4 20.8366 3.16344 28 12 28V20Z" fill="#8ED081" mask="url(#path-1-inside-1)"/>
<mask id="path-3-inside-2" fill="white">
<path fill-rule="evenodd" clip-rule="evenodd" d="M17.25 13.9283C17.1702 14.1826 17.075 14.4298 16.9653 14.6683C16.5657 15.5379 15.9747 16.2936 15.2394 16.8663C14.3025 17.5961 13.178 17.9923 12.0226 17.9999C10.8672 18.0074 9.73841 17.6259 8.79335 16.9084C8.05174 16.3454 7.45225 15.5974 7.04294 14.7331C6.93065 14.496 6.83267 14.2501 6.75 13.9969L7.91617 13.5533C7.91628 13.5536 7.91639 13.554 7.9165 13.5543C8.21512 14.4683 8.77026 15.2591 9.50468 15.8167C10.2394 16.3745 11.1169 16.6711 12.0151 16.6653C12.9134 16.6594 13.7875 16.3513 14.5159 15.784C15.2438 15.217 15.79 14.4193 16.0784 13.5017C16.0786 13.5012 16.0788 13.5006 16.0789 13.5L17.25 13.9283Z"/>
</mask>
<path fill-rule="evenodd" clip-rule="evenodd" d="M17.25 13.9283C17.1702 14.1826 17.075 14.4298 16.9653 14.6683C16.5657 15.5379 15.9747 16.2936 15.2394 16.8663C14.3025 17.5961 13.178 17.9923 12.0226 17.9999C10.8672 18.0074 9.73841 17.6259 8.79335 16.9084C8.05174 16.3454 7.45225 15.5974 7.04294 14.7331C6.93065 14.496 6.83267 14.2501 6.75 13.9969L7.91617 13.5533C7.91628 13.5536 7.91639 13.554 7.9165 13.5543C8.21512 14.4683 8.77026 15.2591 9.50468 15.8167C10.2394 16.3745 11.1169 16.6711 12.0151 16.6653C12.9134 16.6594 13.7875 16.3513 14.5159 15.784C15.2438 15.217 15.79 14.4193 16.0784 13.5017C16.0786 13.5012 16.0788 13.5006 16.0789 13.5L17.25 13.9283Z" fill="#8ED081"/>
<path d="M17.25 13.9283L19.1582 14.5274L19.73 12.7059L17.937 12.05L17.25 13.9283ZM16.9653 14.6683L15.148 13.8333L15.148 13.8333L16.9653 14.6683ZM15.2394 16.8663L16.4684 18.4442L16.4684 18.4442L15.2394 16.8663ZM12.0226 17.9999L12.0096 15.9999H12.0096L12.0226 17.9999ZM8.79335 16.9084L7.58399 18.5013L7.58399 18.5013L8.79335 16.9084ZM7.04294 14.7331L5.23537 15.5891L5.23537 15.5891L7.04294 14.7331ZM6.75 13.9969L6.03893 12.1276L4.25711 12.8053L4.84876 14.6176L6.75 13.9969ZM7.91617 13.5533L9.81727 12.9321L9.16577 10.9381L7.2051 11.684L7.91617 13.5533ZM7.9165 13.5543L9.81761 12.9332L9.8176 12.9332L7.9165 13.5543ZM9.50468 15.8167L8.29532 17.4096L8.29532 17.4097L9.50468 15.8167ZM12.0151 16.6653L12.0021 14.6653L12.0021 14.6653L12.0151 16.6653ZM14.5159 15.784L13.2869 14.2061L13.2869 14.2062L14.5159 15.784ZM16.0784 13.5017L14.1708 12.901L14.1704 12.902L16.0784 13.5017ZM16.0789 13.5L16.766 11.6217L14.7979 10.9018L14.1706 12.9014L16.0789 13.5ZM15.3418 13.3293C15.2872 13.5033 15.2223 13.6716 15.148 13.8333L18.7826 15.5034C18.9276 15.1879 19.0532 14.8619 19.1582 14.5274L15.3418 13.3293ZM15.148 13.8333C14.8767 14.4236 14.4828 14.9206 14.0104 15.2885L16.4684 18.4442C17.4665 17.6667 18.2547 16.6523 18.7827 15.5034L15.148 13.8333ZM14.0104 15.2885C13.4108 15.7555 12.7111 15.9954 12.0096 15.9999L12.0357 19.9998C13.6449 19.9893 15.1942 19.4366 16.4684 18.4442L14.0104 15.2885ZM12.0096 15.9999C11.3081 16.0045 10.6066 15.7739 10.0027 15.3155L7.58399 18.5013C8.87025 19.4779 10.4264 20.0104 12.0357 19.9998L12.0096 15.9999ZM10.0027 15.3155C9.52703 14.9543 9.12807 14.4633 8.8505 13.8771L5.23537 15.5891C5.77643 16.7316 6.57645 17.7364 7.58399 18.5013L10.0027 15.3155ZM8.8505 13.8771C8.7745 13.7166 8.70778 13.5493 8.65124 13.3762L4.84876 14.6176C4.95757 14.9509 5.0868 15.2754 5.23537 15.5891L8.8505 13.8771ZM6.01507 14.1744C6.0151 14.1745 6.01514 14.1747 6.0152 14.1748C6.01526 14.175 6.01533 14.1752 6.0154 14.1755L9.8176 12.9332C9.81757 12.9331 9.81753 12.9329 9.81747 12.9328C9.81742 12.9326 9.81734 12.9324 9.81727 12.9321L6.01507 14.1744ZM6.0154 14.1754C6.43464 15.4586 7.22241 16.5951 8.29532 17.4096L10.7141 14.2238C10.3181 13.9232 9.99561 13.478 9.81761 12.9332L6.0154 14.1754ZM8.29532 17.4097C9.37122 18.2265 10.6761 18.674 12.0282 18.6652L12.0021 14.6653C11.5578 14.6682 11.1075 14.5225 10.7141 14.2238L8.29532 17.4097ZM12.0282 18.6652C13.3802 18.6564 14.6792 18.1919 15.7449 17.3619L13.2869 14.2062C12.8958 14.5108 12.4465 14.6624 12.0021 14.6653L12.0282 18.6652ZM15.7449 17.3619C16.8073 16.5343 17.5817 15.389 17.9864 14.1015L14.1704 12.902C13.9983 13.4496 13.6804 13.8997 13.2869 14.2061L15.7449 17.3619ZM17.986 14.1025C17.9865 14.101 17.9869 14.0998 17.9871 14.0993C17.9871 14.099 17.9872 14.0987 17.9873 14.0986C17.9873 14.0985 17.9873 14.0985 17.9873 14.0986L14.1706 12.9014L14.1708 12.901L17.986 14.1025ZM17.937 12.05L16.766 11.6217L15.3919 15.3783L16.563 15.8066L17.937 12.05ZM7.2051 11.684L6.03893 12.1276L7.46107 15.8662L8.62724 15.4226L7.2051 11.684Z" fill="#8ED081" mask="url(#path-3-inside-2)"/>
<mask id="path-5-inside-3" fill="white">
<path fill-rule="evenodd" clip-rule="evenodd" d="M15.9226 13.9276C15.9807 13.7889 16.0328 13.6468 16.0784 13.5017L16.0789 13.5L17.25 13.9283C17.1912 14.1157 17.124 14.2993 17.0488 14.4783C17.0276 14.529 17.0056 14.5793 16.9831 14.6293C16.9772 14.6423 16.9713 14.6554 16.9653 14.6683C16.5657 15.5379 15.9747 16.2936 15.2394 16.8663C14.3025 17.5961 13.178 17.9923 12.0226 17.9999C10.8672 18.0074 9.73841 17.6259 8.79335 16.9084C8.05174 16.3454 7.45225 15.5974 7.04294 14.7331C7.03689 14.7203 7.03089 14.7075 7.02493 14.6947C7.00421 14.6502 6.984 14.6054 6.9643 14.5603C6.88433 14.3771 6.81276 14.1891 6.75 13.9969L7.89502 13.5613L7.91617 13.5533L7.9165 13.5543C7.96521 13.7034 8.02074 13.8492 8.08277 13.9913C8.40099 14.7201 8.89005 15.3501 9.50468 15.8167C10.2394 16.3745 11.1169 16.6711 12.0151 16.6653C12.9134 16.6594 13.7875 16.3513 14.5159 15.784C15.1287 15.3067 15.6127 14.6658 15.9226 13.9276Z"/>
</mask>
<path fill-rule="evenodd" clip-rule="evenodd" d="M15.9226 13.9276C15.9807 13.7889 16.0328 13.6468 16.0784 13.5017L16.0789 13.5L17.25 13.9283C17.1912 14.1157 17.124 14.2993 17.0488 14.4783C17.0276 14.529 17.0056 14.5793 16.9831 14.6293C16.9772 14.6423 16.9713 14.6554 16.9653 14.6683C16.5657 15.5379 15.9747 16.2936 15.2394 16.8663C14.3025 17.5961 13.178 17.9923 12.0226 17.9999C10.8672 18.0074 9.73841 17.6259 8.79335 16.9084C8.05174 16.3454 7.45225 15.5974 7.04294 14.7331C7.03689 14.7203 7.03089 14.7075 7.02493 14.6947C7.00421 14.6502 6.984 14.6054 6.9643 14.5603C6.88433 14.3771 6.81276 14.1891 6.75 13.9969L7.89502 13.5613L7.91617 13.5533L7.9165 13.5543C7.96521 13.7034 8.02074 13.8492 8.08277 13.9913C8.40099 14.7201 8.89005 15.3501 9.50468 15.8167C10.2394 16.3745 11.1169 16.6711 12.0151 16.6653C12.9134 16.6594 13.7875 16.3513 14.5159 15.784C15.1287 15.3067 15.6127 14.6658 15.9226 13.9276Z" fill="#8ED081"/>
<path d="M15.9226 13.9276L17.7667 14.7016L17.7667 14.7016L15.9226 13.9276ZM16.0784 13.5017L17.9864 14.1015L17.9866 14.1006L16.0784 13.5017ZM16.0789 13.5L16.766 11.6217L14.7981 10.9019L14.1707 12.9012L16.0789 13.5ZM17.25 13.9283L19.1582 14.5274L19.73 12.7059L17.937 12.05L17.25 13.9283ZM17.0488 14.4783L18.893 15.2523L18.893 15.2523L17.0488 14.4783ZM16.9831 14.6293L18.8061 15.4519L18.8061 15.4518L16.9831 14.6293ZM16.9653 14.6683L18.7826 15.5034L18.7827 15.5034L16.9653 14.6683ZM15.2394 16.8663L14.0104 15.2885V15.2885L15.2394 16.8663ZM12.0226 17.9999L12.0096 15.9999H12.0096L12.0226 17.9999ZM8.79335 16.9084L7.58399 18.5013H7.58399L8.79335 16.9084ZM7.04294 14.7331L5.23537 15.5891L5.23537 15.5891L7.04294 14.7331ZM7.02493 14.6947L5.21154 15.5383L5.21155 15.5383L7.02493 14.6947ZM6.9643 14.5603L5.13139 15.3605L5.13139 15.3605L6.9643 14.5603ZM6.75 13.9969L6.03893 12.1276L4.25711 12.8053L4.84876 14.6176L6.75 13.9969ZM7.89502 13.5613L8.60609 15.4307L8.60609 15.4307L7.89502 13.5613ZM7.91617 13.5533L9.81729 12.9322L9.16584 10.9381L7.2051 11.684L7.91617 13.5533ZM7.9165 13.5543L6.01538 14.1754L6.0154 14.1754L7.9165 13.5543ZM8.08277 13.9913L6.24986 14.7915L6.24986 14.7915L8.08277 13.9913ZM9.50468 15.8167L8.29532 17.4096L8.29532 17.4097L9.50468 15.8167ZM12.0151 16.6653L12.0021 14.6653H12.0021L12.0151 16.6653ZM14.5159 15.784L13.2869 14.2062L14.5159 15.784ZM17.7667 14.7016C17.8489 14.5057 17.9222 14.3055 17.9864 14.1015L14.1704 12.902C14.1434 12.9882 14.1126 13.0721 14.0784 13.1536L17.7667 14.7016ZM17.9866 14.1006L17.9872 14.0988L14.1707 12.9012L14.1702 12.9029L17.9866 14.1006ZM15.3418 13.3293C15.3016 13.4575 15.2557 13.5827 15.2047 13.7043L18.893 15.2523C18.9922 15.0158 19.0808 14.7739 19.1582 14.5274L15.3418 13.3293ZM15.2047 13.7043C15.1902 13.7388 15.1753 13.7729 15.1601 13.8068L18.8061 15.4518C18.8359 15.3858 18.8649 15.3192 18.893 15.2523L15.2047 13.7043ZM15.1601 13.8068C15.1561 13.8157 15.152 13.8245 15.148 13.8333L18.7827 15.5034C18.7906 15.4862 18.7984 15.469 18.8061 15.4519L15.1601 13.8068ZM15.148 13.8333C14.8767 14.4236 14.4828 14.9206 14.0104 15.2885L16.4684 18.4442C17.4665 17.6667 18.2547 16.6523 18.7826 15.5034L15.148 13.8333ZM14.0104 15.2885C13.4108 15.7555 12.7111 15.9954 12.0096 15.9999L12.0357 19.9998C13.6449 19.9893 15.1942 19.4366 16.4684 18.4442L14.0104 15.2885ZM12.0096 15.9999C11.3081 16.0045 10.6066 15.7739 10.0027 15.3155L7.58399 18.5013C8.87025 19.4779 10.4264 20.0104 12.0357 19.9998L12.0096 15.9999ZM10.0027 15.3155C9.52703 14.9543 9.12807 14.4633 8.8505 13.8771L5.23537 15.5891C5.77643 16.7316 6.57645 17.7364 7.58399 18.5013L10.0027 15.3155ZM8.8505 13.8771C8.84641 13.8685 8.84234 13.8598 8.83831 13.8511L5.21155 15.5383C5.21943 15.5553 5.22737 15.5722 5.23537 15.5891L8.8505 13.8771ZM8.83831 13.8511C8.82428 13.821 8.81058 13.7906 8.79721 13.76L5.13139 15.3605C5.15742 15.4202 5.18414 15.4794 5.21154 15.5383L8.83831 13.8511ZM8.79721 13.76C8.74294 13.6357 8.69416 13.5076 8.65124 13.3762L4.84876 14.6176C4.93136 14.8706 5.02573 15.1185 5.13139 15.3605L8.79721 13.76ZM8.60609 15.4307L8.62724 15.4226L7.2051 11.684L7.18395 11.692L8.60609 15.4307ZM6.01505 14.1744L6.01538 14.1754L9.81763 12.9332L9.81729 12.9322L6.01505 14.1744ZM6.0154 14.1754C6.08392 14.3852 6.1622 14.5908 6.24986 14.7915L9.91567 13.191C9.87929 13.1076 9.84651 13.0216 9.81761 12.9332L6.0154 14.1754ZM6.24986 14.7915C6.69901 15.8202 7.39723 16.7278 8.29532 17.4096L10.7141 14.2238C10.3829 13.9724 10.103 13.6199 9.91567 13.191L6.24986 14.7915ZM8.29532 17.4097C9.37122 18.2265 10.6761 18.674 12.0282 18.6652L12.0021 14.6653C11.5578 14.6682 11.1075 14.5225 10.7141 14.2238L8.29532 17.4097ZM12.0282 18.6652C13.3802 18.6564 14.6792 18.1919 15.7449 17.3619L13.2869 14.2062C12.8958 14.5108 12.4465 14.6624 12.0021 14.6653L12.0282 18.6652ZM15.7449 17.3619C16.6395 16.665 17.3298 15.7427 17.7667 14.7016L14.0784 13.1536C13.8957 13.5889 13.618 13.9483 13.2869 14.2062L15.7449 17.3619ZM15.3919 15.3783L16.563 15.8066L17.937 12.05L16.766 11.6217L15.3919 15.3783ZM7.46107 15.8662L8.60609 15.4307L7.18395 11.692L6.03893 12.1276L7.46107 15.8662Z" fill="#8ED081" mask="url(#path-5-inside-3)"/>
<path d="M9.75 9C9.75 9.82843 9.07843 10.5 8.25 10.5C7.42157 10.5 6.75 9.82843 6.75 9C6.75 8.17157 7.42157 7.5 8.25 7.5C9.07843 7.5 9.75 8.17157 9.75 9Z" fill="#8ED081"/>
<path d="M17.25 9C17.25 9.82843 16.5784 10.5 15.75 10.5C14.9216 10.5 14.25 9.82843 14.25 9C14.25 8.17157 14.9216 7.5 15.75 7.5C16.5784 7.5 17.25 8.17157 17.25 9Z" fill="#8ED081"/>
</svg>
