<svg width="24" height="24" viewBox="0 0 24 24" fill="none" xmlns="http://www.w3.org/2000/svg">
<mask id="path-1-inside-1" fill="white">
<path fill-rule="evenodd" clip-rule="evenodd" d="M12 22.5C17.799 22.5 22.5 17.799 22.5 12C22.5 6.20101 17.799 1.5 12 1.5C6.20101 1.5 1.5 6.20101 1.5 12C1.5 17.799 6.20101 22.5 12 22.5ZM12 24C18.6274 24 24 18.6274 24 12C24 5.37258 18.6274 0 12 0C5.37258 0 0 5.37258 0 12C0 18.6274 5.37258 24 12 24Z"/>
</mask>
<path fill-rule="evenodd" clip-rule="evenodd" d="M12 22.5C17.799 22.5 22.5 17.799 22.5 12C22.5 6.20101 17.799 1.5 12 1.5C6.20101 1.5 1.5 6.20101 1.5 12C1.5 17.799 6.20101 22.5 12 22.5ZM12 24C18.6274 24 24 18.6274 24 12C24 5.37258 18.6274 0 12 0C5.37258 0 0 5.37258 0 12C0 18.6274 5.37258 24 12 24Z" fill="#F03A47"/>
<path d="M18.5 12C18.5 15.5899 15.5899 18.5 12 18.5V26.5C20.0081 26.5 26.5 20.0081 26.5 12H18.5ZM12 5.5C15.5899 5.5 18.5 8.41015 18.5 12H26.5C26.5 3.99187 20.0081 -2.5 12 -2.5V5.5ZM5.5 12C5.5 8.41015 8.41015 5.5 12 5.5V-2.5C3.99187 -2.5 -2.5 3.99187 -2.5 12H5.5ZM12 18.5C8.41015 18.5 5.5 15.5899 5.5 12H-2.5C-2.5 20.0081 3.99187 26.5 12 26.5V18.5ZM20 12C20 16.4183 16.4183 20 12 20V28C20.8366 28 28 20.8366 28 12H20ZM12 4C16.4183 4 20 7.58172 20 12H28C28 3.16344 20.8366 -4 12 -4V4ZM4 12C4 7.58172 7.58172 4 12 4V-4C3.16344 -4 -4 3.16344 -4 12H4ZM12 20C7.58172 20 4 16.4183 4 12H-4C-4 20.8366 3.16344 28 12 28V20Z" fill="#F03A47" mask="url(#path-1-inside-1)"/>
<mask id="path-3-inside-2" fill="white">
<path fill-rule="evenodd" clip-rule="evenodd" d="M6.75 17.2324C6.82983 16.9993 6.92504 16.7727 7.03467 16.554C7.43426 15.7569 8.02533 15.0642 8.76058 14.5392C9.69753 13.8702 10.822 13.507 11.9774 13.5001C13.1328 13.4932 14.2616 13.8429 15.2066 14.5006C15.9483 15.0168 16.5478 15.7024 16.9571 16.4947C17.0694 16.712 17.1673 16.9374 17.25 17.1695L16.0838 17.5762C16.0837 17.5758 16.0836 17.5755 16.0835 17.5752C15.7849 16.7374 15.2297 16.0125 14.4953 15.5013C13.7606 14.99 12.8831 14.7181 11.9849 14.7235C11.0866 14.7289 10.2125 15.0113 9.48409 15.5313C8.75616 16.0511 8.21001 16.7823 7.9216 17.6234C7.92142 17.6239 7.92123 17.6245 7.92105 17.625L6.75 17.2324Z"/>
</mask>
<path fill-rule="evenodd" clip-rule="evenodd" d="M6.75 17.2324C6.82983 16.9993 6.92504 16.7727 7.03467 16.554C7.43426 15.7569 8.02533 15.0642 8.76058 14.5392C9.69753 13.8702 10.822 13.507 11.9774 13.5001C13.1328 13.4932 14.2616 13.8429 15.2066 14.5006C15.9483 15.0168 16.5478 15.7024 16.9571 16.4947C17.0694 16.712 17.1673 16.9374 17.25 17.1695L16.0838 17.5762C16.0837 17.5758 16.0836 17.5755 16.0835 17.5752C15.7849 16.7374 15.2297 16.0125 14.4953 15.5013C13.7606 14.99 12.8831 14.7181 11.9849 14.7235C11.0866 14.7289 10.2125 15.0113 9.48409 15.5313C8.75616 16.0511 8.21001 16.7823 7.9216 17.6234C7.92142 17.6239 7.92123 17.6245 7.92105 17.625L6.75 17.2324Z" fill="#F03A47"/>
<path d="M6.75 17.2324L4.85788 16.5844L4.20571 18.4887L6.1142 19.1286L6.75 17.2324ZM7.03467 16.554L8.8226 17.4503L8.8226 17.4503L7.03467 16.554ZM8.76058 14.5392L7.59843 12.9115L7.59843 12.9115L8.76058 14.5392ZM11.9774 13.5001L11.9893 15.5001L11.9893 15.5001L11.9774 13.5001ZM15.2066 14.5006L16.3491 12.859L16.3491 12.859L15.2066 14.5006ZM16.9571 16.4947L18.734 15.5767L18.734 15.5767L16.9571 16.4947ZM17.25 17.1695L17.9085 19.058L19.8096 18.3951L19.1341 16.4985L17.25 17.1695ZM16.0838 17.5762L14.1999 18.2476L14.8668 20.1186L16.7423 19.4646L16.0838 17.5762ZM16.0835 17.5752L14.1996 18.2467L14.1996 18.2467L16.0835 17.5752ZM14.4953 15.5013L15.6378 13.8598L15.6378 13.8598L14.4953 15.5013ZM11.9849 14.7235L11.9968 16.7235L11.9968 16.7235L11.9849 14.7235ZM9.48409 15.5313L10.6462 17.159L10.6462 17.159L9.48409 15.5313ZM7.9216 17.6234L9.81309 18.2732L9.81346 18.2721L7.9216 17.6234ZM7.92105 17.625L7.28526 19.5212L9.16978 20.1531L9.81332 18.2725L7.92105 17.625ZM8.64212 17.8803C8.6927 17.7327 8.75305 17.589 8.8226 17.4503L5.24673 15.6578C5.09703 15.9564 4.96696 16.2659 4.85788 16.5844L8.64212 17.8803ZM8.8226 17.4503C9.07612 16.9445 9.45226 16.5028 9.92273 16.1669L7.59843 12.9115C6.5984 13.6255 5.7924 14.5692 5.24673 15.6578L8.8226 17.4503ZM9.92273 16.1669C10.5226 15.7386 11.245 15.5045 11.9893 15.5001L11.9654 11.5001C10.399 11.5095 8.8725 12.0019 7.59843 12.9115L9.92273 16.1669ZM11.9893 15.5001C12.7337 15.4956 13.459 15.7211 14.0642 16.1422L16.3491 12.859C15.0641 11.9648 13.5318 11.4908 11.9654 11.5001L11.9893 15.5001ZM14.0642 16.1422C14.5388 16.4725 14.9204 16.9098 15.1802 17.4126L18.734 15.5767C18.1751 14.4949 17.3577 13.561 16.3491 12.859L14.0642 16.1422ZM15.1802 17.4126C15.2514 17.5505 15.3135 17.6935 15.3659 17.8405L19.1341 16.4985C19.0211 16.1814 18.8873 15.8735 18.734 15.5767L15.1802 17.4126ZM17.9677 16.9047C17.9677 16.9046 17.9677 16.9045 17.9676 16.9043C17.9676 16.9042 17.9675 16.9039 17.9674 16.9037L14.1996 18.2467C14.1996 18.2468 14.1997 18.2469 14.1997 18.2471C14.1998 18.2472 14.1998 18.2474 14.1999 18.2476L17.9677 16.9047ZM17.9674 16.9038C17.5279 15.6707 16.7122 14.6075 15.6378 13.8598L13.3529 17.1429C13.7472 17.4174 14.0418 17.8041 14.1996 18.2467L17.9674 16.9038ZM15.6378 13.8598C14.5632 13.1119 13.2821 12.7157 11.9729 12.7236L11.9968 16.7235C12.484 16.7206 12.9581 16.8682 13.3529 17.1429L15.6378 13.8598ZM11.9729 12.7236C10.6637 12.7314 9.38745 13.1429 8.32194 13.9036L10.6462 17.159C11.0375 16.8797 11.5096 16.7264 11.9968 16.7235L11.9729 12.7236ZM8.32194 13.9036C7.25682 14.6641 6.45425 15.7367 6.02974 16.9747L9.81346 18.2721C9.96577 17.828 10.2555 17.438 10.6462 17.159L8.32194 13.9036ZM6.0301 16.9736C6.02959 16.9751 6.02917 16.9763 6.02897 16.9769C6.02888 16.9772 6.02878 16.9775 6.02876 16.9775C6.02872 16.9776 6.02874 16.9776 6.02878 16.9775L9.81332 18.2725L9.81309 18.2732L6.0301 16.9736ZM6.1142 19.1286L7.28526 19.5212L8.55685 15.7287L7.3858 15.3361L6.1142 19.1286ZM16.7423 19.4646L17.9085 19.058L16.5915 15.281L15.4253 15.6877L16.7423 19.4646Z" fill="#F03A47" mask="url(#path-3-inside-2)"/>
<path d="M9.75 9C9.75 9.82843 9.07843 10.5 8.25 10.5C7.42157 10.5 6.75 9.82843 6.75 9C6.75 8.17157 7.42157 7.5 8.25 7.5C9.07843 7.5 9.75 8.17157 9.75 9Z" fill="#F03A47"/>
<path d="M17.25 9C17.25 9.82843 16.5784 10.5 15.75 10.5C14.9216 10.5 14.25 9.82843 14.25 9C14.25 8.17157 14.9216 7.5 15.75 7.5C16.5784 7.5 17.25 8.17157 17.25 9Z" fill="#F03A47"/>
</svg>
