<svg width="24" height="24" viewBox="0 0 24 24" fill="none" xmlns="http://www.w3.org/2000/svg">
<mask id="path-1-inside-1" fill="white">
<path fill-rule="evenodd" clip-rule="evenodd" d="M12 22.5C17.799 22.5 22.5 17.799 22.5 12C22.5 6.20101 17.799 1.5 12 1.5C6.20101 1.5 1.5 6.20101 1.5 12C1.5 17.799 6.20101 22.5 12 22.5ZM12 24C18.6274 24 24 18.6274 24 12C24 5.37258 18.6274 0 12 0C5.37258 0 0 5.37258 0 12C0 18.6274 5.37258 24 12 24Z"/>
</mask>
<path fill-rule="evenodd" clip-rule="evenodd" d="M12 22.5C17.799 22.5 22.5 17.799 22.5 12C22.5 6.20101 17.799 1.5 12 1.5C6.20101 1.5 1.5 6.20101 1.5 12C1.5 17.799 6.20101 22.5 12 22.5ZM12 24C18.6274 24 24 18.6274 24 12C24 5.37258 18.6274 0 12 0C5.37258 0 0 5.37258 0 12C0 18.6274 5.37258 24 12 24Z" fill="#F9C22E"/>
<path d="M18.5 12C18.5 15.5899 15.5899 18.5 12 18.5V26.5C20.0081 26.5 26.5 20.0081 26.5 12H18.5ZM12 5.5C15.5899 5.5 18.5 8.41015 18.5 12H26.5C26.5 3.99187 20.0081 -2.5 12 -2.5V5.5ZM5.5 12C5.5 8.41015 8.41015 5.5 12 5.5V-2.5C3.99187 -2.5 -2.5 3.99187 -2.5 12H5.5ZM12 18.5C8.41015 18.5 5.5 15.5899 5.5 12H-2.5C-2.5 20.0081 3.99187 26.5 12 26.5V18.5ZM20 12C20 16.4183 16.4183 20 12 20V28C20.8366 28 28 20.8366 28 12H20ZM12 4C16.4183 4 20 7.58172 20 12H28C28 3.16344 20.8366 -4 12 -4V4ZM4 12C4 7.58172 7.58172 4 12 4V-4C3.16344 -4 -4 3.16344 -4 12H4ZM12 20C7.58172 20 4 16.4183 4 12H-4C-4 20.8366 3.16344 28 12 28V20Z" fill="#F9C22E" mask="url(#path-1-inside-1)"/>
<path d="M9.75 9C9.75 9.82843 9.07843 10.5 8.25 10.5C7.42157 10.5 6.75 9.82843 6.75 9C6.75 8.17157 7.42157 7.5 8.25 7.5C9.07843 7.5 9.75 8.17157 9.75 9Z" fill="#F9C22E"/>
<path d="M17.25 9C17.25 9.82843 16.5784 10.5 15.75 10.5C14.9216 10.5 14.25 9.82843 14.25 9C14.25 8.17157 14.9216 7.5 15.75 7.5C16.5784 7.5 17.25 8.17157 17.25 9Z" fill="#F9C22E"/>
<path d="M6.75 14.7217H17.25V16.2217H6.75V14.7217Z" fill="#F9C22E"/>
</svg>
