<svg width="20" height="30" viewBox="0 0 20 30" fill="none" xmlns="http://www.w3.org/2000/svg">
<path d="M19.0805 19.5015C18.6966 19.1177 18.2308 18.8462 17.7229 18.7016V5.71702C17.7229 5.49866 17.6397 5.28847 17.4898 5.12929L12.9163 0.269831C12.7542 0.0977288 12.5281 0 12.2918 0H0.857565C0.383886 0 0 0.383886 0 0.857565V22.8683C0 23.342 0.383886 23.7259 0.857565 23.7259H10.4091L9.78241 24.3526C8.55637 25.5786 8.55637 27.5734 9.78241 28.7994C10.3763 29.3935 11.166 29.7204 12.0059 29.7204C12.8458 29.7204 13.6353 29.3935 14.2294 28.7994L19.0805 23.9483C20.3065 22.7223 20.3065 20.7276 19.0805 19.5015ZM15.9568 6.00295H12.0059V1.80515L15.9568 6.00295ZM12.1243 22.0108H1.71513V1.71513H10.2908V6.86052C10.2908 7.3342 10.6747 7.71808 11.1483 7.71808H16.0078V18.6968C15.4933 18.8403 15.0217 19.1136 14.6337 19.5015L12.1243 22.0108ZM13.0165 27.5867C12.4655 28.1377 11.5461 28.1375 10.9953 27.5867C10.4379 27.0294 10.4379 26.1226 10.9953 25.5653L12.8145 23.7463L14.8357 25.7675L13.0165 27.5867ZM17.8676 22.7357L16.0484 24.5549L14.0271 22.5334L15.8464 20.7144C16.3974 20.1632 17.3173 20.1639 17.8676 20.7144C18.4249 21.2716 18.4249 22.1783 17.8676 22.7357Z" fill="#ED5344"/>
<path d="M7.14663 11.7198H8.00419V12.5774C8.00419 13.0511 8.38808 13.4349 8.86176 13.4349C9.33521 13.4349 9.71932 13.0511 9.71932 12.5774V11.7198H10.5769C11.0503 11.7198 11.4345 11.3359 11.4345 10.8622C11.4345 10.3888 11.0503 10.0047 10.5769 10.0047H9.71932V9.14712C9.71932 8.67366 9.33521 8.28955 8.86176 8.28955C8.38808 8.28955 8.00419 8.67366 8.00419 9.14712V10.0047H7.14663C6.67295 10.0047 6.28906 10.3888 6.28906 10.8622C6.28906 11.3359 6.67295 11.7198 7.14663 11.7198Z" fill="#ED5344"/>
<path d="M13.4355 15.1504H4.28823C3.81455 15.1504 3.43066 15.5345 3.43066 16.008C3.43066 16.4816 3.81455 16.8655 4.28823 16.8655H13.4355C13.9092 16.8655 14.2931 16.4816 14.2931 16.008C14.2931 15.5345 13.9092 15.1504 13.4355 15.1504Z" fill="#ED5344"/>
<path d="M10.0053 18.5806H4.28823C3.81455 18.5806 3.43066 18.9645 3.43066 19.4381C3.43066 19.9118 3.81455 20.2957 4.28823 20.2957H10.0053C10.4789 20.2957 10.8628 19.9118 10.8628 19.4381C10.8628 18.9645 10.4789 18.5806 10.0053 18.5806Z" fill="#ED5344"/>
</svg>
