<svg width="226" height="186" viewBox="0 0 226 186" fill="none" xmlns="http://www.w3.org/2000/svg">
<path d="M204.059 140.817L154.151 99.7425H144.828L120.91 119.427V127.1L170.818 168.175C174.491 171.198 180.423 171.198 184.096 168.175L204.059 151.745C207.732 148.8 207.732 143.84 204.059 140.817ZM177.41 151.822L137.483 118.962L144.169 113.46L184.096 146.32L177.41 151.822Z" fill="#959595"/>
<path d="M163.285 78.9725L176.563 68.045L196.526 84.475C207.543 75.4075 207.543 60.6825 196.526 51.615L163.191 24.18L149.913 35.1075V13.2525L143.322 7.75L109.987 35.185L116.673 40.6875H143.322L130.044 51.615L140.026 59.83L112.812 82.2275L73.9209 50.22V39.215L45.4825 15.81L18.8334 37.7425L47.3659 61.225H60.6434L99.5342 93.2325L91.53 99.82H71.5667L21.6584 140.895C17.9859 143.918 17.9859 148.8 21.6584 151.822L41.6217 168.252C45.2942 171.275 51.2267 171.275 54.8992 168.252L104.808 127.177V110.747L153.303 70.835L163.285 78.9725ZM88.14 118.885L48.2134 151.745L41.5275 146.243L81.4542 113.382L88.14 118.885Z" fill="#959595"/>
</svg>
