<?xml version="1.0" encoding="UTF-8"?>
<!-- Created with Inkscape (http://www.inkscape.org/) -->
<svg width="10mm" height="10mm" version="1.1" viewBox="0 0 101.59 144.55" xmlns="http://www.w3.org/2000/svg">
 <g transform="translate(-25.625 -69.347)" fill="#f10230">
  <path d="m74.161 69.555c-7.7033 1.0114-14.764 2.1173-21.731 5.894-5.2262 2.8332-9.8679 6.5272-13.85 10.92-3.2856 3.6242-5.9224 7.762-8.0934 12.136-5.9696 12.026-6.3508 27.028-1.6432 39.511 4.682 12.415 13.446 24.061 20.468 35.278 6.4911 10.37 12.799 20.869 19.148 31.327 1.8198 2.9978 4.2381 9.687 8.524 9.2569 3.6584-0.36717 5.487-5.6854 7.1752-8.4102 5.5076-8.8886 10.925-17.845 16.306-26.811 5.0388-8.3975 10.201-16.72 15.24-25.118 4.4605-7.4346 8.8059-14.518 10.541-23.142 5.2341-26.015-11.178-52.883-37.127-59.372-4.7109-1.178-10.098-2.1062-14.958-1.4682m-0.28222 25.361c23.28-2.7842 36.814 27.119 20.577 43.356-4.4746 4.4749-10.184 6.5535-16.343 7.2828-15.297 1.8107-28.464-12.726-27.045-27.577 1.1613-12.156 10.787-21.624 22.812-23.062z" fill="#f10230"/>
 </g>
 <ellipse cx="50.795" cy="52.874" rx="28.046" ry="29.553" fill="#f10230" stroke-width="3.8246"/>
</svg>
