<?xml version="1.0" encoding="utf-8"?>
<!-- Generator: Adobe Illustrator 26.0.2, SVG Export Plug-In . SVG Version: 6.00 Build 0)  -->
<svg version="1.1" id="Layer_1" xmlns="http://www.w3.org/2000/svg" xmlns:xlink="http://www.w3.org/1999/xlink" x="0px" y="0px"
	 width="175px" height="77px" viewBox="0 0 175 77" style="enable-background:new 0 0 175 77;" xml:space="preserve">
<style type="text/css">
	.st0{fill:#ED5344;}
	.st1{fill:#959595;}
</style>
<g>
	<path class="st0" d="M158.7,25.3L143.4,0h-6.6l16.4,26.8l0,21.2h5.5L158.7,25.3L158.7,25.3z M158.3,14.2l3.2,5.4L173.5,0h-6.3
		L158.3,14.2z M129,4.9c-1.8-2.1-4.2-3.6-6.9-4.2c-1.9-0.4-5.5-0.7-10.8-0.7h-9.9v48h5.2V4.7h8.5c3.3,0,5.6,0.3,7,0.8
		c1.4,0.6,2.6,1.5,3.4,2.8c0.9,1.3,1.3,2.8,1.3,4.4c0,1.6-0.4,3.2-1.3,4.5c-0.6,0.9-3.3,3.2-4.3,3.8l2.6,4c1.7-1,5-3.8,6-5.4
		c1.2-2,1.8-4.3,1.8-6.9C131.6,9.6,130.7,7,129,4.9L129,4.9z M77.3,35.8L92.7,0h-6.1L74.3,28.7L77.3,35.8L77.3,35.8z M71.5,37.3
		L55.4,0h-6.1l20.6,48h1.9l2.3-4.5L71.5,37.3L71.5,37.3z M112.3,26.3L126.4,48h5.9l-14.5-22.3h0.1l-3-4.6c-0.1,0-0.1,0-0.2,0l-2.4,0
		V26.3L112.3,26.3z"/>
	<path class="st0" d="M26.4,47.9c0.1,0,0.2,0,0.4,0c0.4,0,0.8-0.1,1.3-0.1c0.1,0,0.1,0,0.2,0c1.9-0.2,3.9-0.7,5.7-1.3
		c2.7-1,5.1-2.5,7.2-4.5c1.2-1.1,2.1-2.4,3.2-3.8h-7.6c-1.6,1.4-3.5,2.5-5.6,3.2c-1.1,0.4-2.2,0.7-3.3,0.9c-0.6,0.1-1.1,0.2-1.7,0.2
		h0c-0.6,0.1-1.2,0.1-1.8,0.1c-4.8,0-8.8-1.7-12.1-5.1C9,34.1,6.9,29,6.8,23.7c0,0,0,0,0-0.1c0-2,0.4-4,1.1-5.9
		c0.8-2.2,1.9-4.2,3.4-6c3.1-3.7,7-5.7,11.7-6l0,0c0.5,0,1.1-0.1,1.6-0.1c2.7,0,5.3,0.6,7.8,1.7c2.5,1.1,4.4,2.7,5.9,4.5
		c1.5,1.9,2.9,5.6,3.4,9.1H16.8L11.3,26h36.9c0-3.9-0.7-9-2-12.1c-0.5-1.2-1.1-2.4-1.9-3.5c-0.4-0.6-0.7-1.1-1.2-1.6
		c-1.4-1.8-3-3.3-4.8-4.7c-0.7-0.5-1.4-1-2.2-1.4c-0.4-0.2-0.8-0.4-1.1-0.6c-0.8-0.4-1.6-0.7-2.4-1c-0.4-0.1-0.8-0.3-1.3-0.4
		c-0.9-0.2-1.7-0.4-2.6-0.6c-0.4-0.1-0.9-0.1-1.4-0.2C26.5,0,24,0,23.7,0c0,0-3.8,0.3-5.6,0.8C13.5,2.1,9.6,4.6,6.5,8.6
		c-1,1.3-2,2.8-2.7,4.3c-0.2,0.5-0.5,1-0.7,1.5c-0.3,0.7-0.6,1.4-0.9,2.1C1.3,19.2,0.9,22,1,24.9c0.1,1.8,0.4,3.5,0.9,5.2
		c0.3,1.4,0.8,2.7,1.4,4c0,0,0,0,0,0c0.5,1.2,1.1,2.3,1.8,3.3c0.7,1.1,1.5,2.2,2.4,3.2c4.2,4.9,10,7.3,17.4,7.3
		C25.4,48,25.9,48,26.4,47.9L26.4,47.9z"/>
	<path class="st1" d="M6.4,73V61.6h3.4c1.2,0,2.1,0.3,2.8,0.8c0.6,0.5,0.9,1.2,0.9,2.2c0,0.6-0.2,1.1-0.5,1.5
		c-0.3,0.4-0.8,0.7-1.3,0.9c0.7,0.1,1.2,0.5,1.6,1c0.4,0.5,0.6,1.1,0.6,1.8c0,1-0.3,1.8-1,2.4c-0.6,0.6-1.5,0.8-2.7,0.8H6.4z
		 M7.4,67.5v4.7h2.9c0.8,0,1.5-0.2,2-0.6c0.5-0.4,0.7-1,0.7-1.8c0-0.7-0.2-1.3-0.7-1.7c-0.5-0.4-1.1-0.6-1.9-0.6H7.4z M7.4,66.7H10
		c0.8,0,1.4-0.2,1.9-0.6c0.4-0.4,0.7-0.9,0.7-1.6c0-0.7-0.2-1.3-0.7-1.6c-0.5-0.3-1.1-0.5-2.1-0.5H7.4V66.7z M19.3,73.2
		c-0.7,0-1.4-0.2-2-0.5c-0.6-0.4-1-0.8-1.4-1.5c-0.3-0.6-0.5-1.3-0.5-2.1v-0.3c0-0.8,0.2-1.5,0.5-2.2c0.3-0.7,0.8-1.2,1.3-1.5
		c0.6-0.4,1.2-0.6,1.8-0.6c1,0,1.8,0.4,2.4,1.1c0.6,0.7,0.9,1.7,0.9,2.9v0.5h-6V69c0,1,0.3,1.8,0.8,2.4c0.6,0.6,1.2,1,2.1,1
		c0.5,0,0.9-0.1,1.3-0.3c0.4-0.2,0.7-0.5,1-0.9l0.6,0.4C21.6,72.7,20.6,73.2,19.3,73.2z M19.1,65.2c-0.7,0-1.3,0.3-1.8,0.8
		c-0.5,0.5-0.8,1.2-0.9,2.1h5.1v-0.1c0-0.8-0.3-1.5-0.7-2S19.8,65.2,19.1,65.2z M25.8,62.4v2.2h1.8v0.8h-1.8v5.6
		c0,0.5,0.1,0.8,0.2,1c0.2,0.2,0.5,0.3,0.9,0.3c0.2,0,0.4,0,0.8-0.1l0,0.8c-0.2,0.1-0.6,0.1-1,0.1c-0.6,0-1.1-0.2-1.4-0.6
		c-0.3-0.4-0.4-0.9-0.4-1.6v-5.6h-1.6v-0.8h1.6v-2.2H25.8z M30.9,62.4v2.2h1.7v0.8h-1.7v5.6c0,0.5,0.1,0.8,0.2,1
		c0.2,0.2,0.5,0.3,0.9,0.3c0.2,0,0.4,0,0.8-0.1l0,0.8c-0.2,0.1-0.6,0.1-1,0.1c-0.6,0-1.1-0.2-1.4-0.6C30.1,72.2,30,71.7,30,71v-5.6
		h-1.6v-0.8H30v-2.2H30.9z M37.9,73.2c-0.7,0-1.4-0.2-2-0.5c-0.6-0.4-1-0.8-1.4-1.5c-0.3-0.6-0.5-1.3-0.5-2.1v-0.3
		c0-0.8,0.2-1.5,0.5-2.2c0.3-0.7,0.8-1.2,1.3-1.5c0.6-0.4,1.2-0.6,1.8-0.6c1,0,1.8,0.4,2.4,1.1c0.6,0.7,0.9,1.7,0.9,2.9v0.5h-6V69
		c0,1,0.3,1.8,0.8,2.4c0.6,0.6,1.2,1,2.1,1c0.5,0,0.9-0.1,1.3-0.3c0.4-0.2,0.7-0.5,1-0.9l0.6,0.4C40.2,72.7,39.2,73.2,37.9,73.2z
		 M37.7,65.2c-0.7,0-1.3,0.3-1.8,0.8c-0.5,0.5-0.8,1.2-0.9,2.1h5.1v-0.1c0-0.8-0.3-1.5-0.7-2S38.4,65.2,37.7,65.2z M46.8,65.3
		c-0.2,0-0.4-0.1-0.6-0.1c-0.6,0-1.1,0.2-1.5,0.5c-0.4,0.3-0.7,0.8-0.9,1.4V73h-0.9v-8.5h0.9l0,1.3c0.5-1,1.3-1.5,2.4-1.5
		c0.3,0,0.5,0,0.6,0.1L46.8,65.3z M60.8,73h-1v-5.5h-6.5V73h-1V61.6h1v5.1h6.5v-5.1h1V73z M66.7,73.2c-0.7,0-1.4-0.2-2-0.5
		c-0.6-0.4-1-0.8-1.4-1.5c-0.3-0.6-0.5-1.3-0.5-2.1v-0.3c0-0.8,0.2-1.5,0.5-2.2c0.3-0.7,0.8-1.2,1.3-1.5c0.6-0.4,1.2-0.6,1.8-0.6
		c1,0,1.8,0.4,2.4,1.1c0.6,0.7,0.9,1.7,0.9,2.9v0.5h-6V69c0,1,0.3,1.8,0.8,2.4c0.6,0.6,1.2,1,2.1,1c0.5,0,0.9-0.1,1.3-0.3
		c0.4-0.2,0.7-0.5,1-0.9l0.6,0.4C69,72.7,68,73.2,66.7,73.2z M66.6,65.2c-0.7,0-1.3,0.3-1.8,0.8c-0.5,0.5-0.8,1.2-0.9,2.1H69v-0.1
		c0-0.8-0.3-1.5-0.7-2S67.3,65.2,66.6,65.2z M77.1,73c-0.1-0.3-0.2-0.7-0.2-1.2c-0.3,0.4-0.7,0.8-1.3,1c-0.5,0.2-1,0.3-1.6,0.3
		c-0.8,0-1.5-0.2-2-0.7c-0.5-0.5-0.8-1-0.8-1.7c0-0.8,0.3-1.5,1-2c0.7-0.5,1.6-0.7,2.9-0.7h1.7v-1c0-0.6-0.2-1.1-0.6-1.4
		c-0.4-0.3-0.9-0.5-1.6-0.5c-0.7,0-1.2,0.2-1.6,0.5c-0.4,0.3-0.6,0.7-0.6,1.2l-0.9,0c0-0.7,0.3-1.3,0.9-1.7c0.6-0.5,1.4-0.7,2.3-0.7
		c0.9,0,1.7,0.2,2.2,0.7c0.5,0.5,0.8,1.1,0.8,2v4c0,0.8,0.1,1.4,0.3,1.8V73H77.1z M74.1,72.3c0.6,0,1.2-0.2,1.7-0.5
		c0.5-0.3,0.9-0.7,1.1-1.2v-1.9h-1.7c-0.9,0-1.7,0.2-2.2,0.5c-0.5,0.3-0.8,0.8-0.8,1.4c0,0.5,0.2,0.9,0.5,1.2
		C73.1,72.2,73.6,72.3,74.1,72.3z M81.3,73h-0.9V61h0.9V73z M85.3,62.4v2.2h1.8v0.8h-1.8v5.6c0,0.5,0.1,0.8,0.2,1
		c0.2,0.2,0.5,0.3,0.9,0.3c0.2,0,0.4,0,0.8-0.1l0,0.8c-0.2,0.1-0.6,0.1-1,0.1c-0.6,0-1.1-0.2-1.4-0.6c-0.3-0.4-0.4-0.9-0.4-1.6v-5.6
		h-1.6v-0.8h1.6v-2.2H85.3z M90,66c0.3-0.5,0.7-0.9,1.2-1.2c0.5-0.3,1-0.4,1.6-0.4c0.9,0,1.6,0.3,2,0.8c0.4,0.5,0.7,1.3,0.7,2.3V73
		h-0.9v-5.6c0-0.8-0.2-1.3-0.5-1.7c-0.3-0.4-0.8-0.6-1.5-0.6c-0.6,0-1.1,0.2-1.5,0.5c-0.4,0.4-0.8,0.8-1,1.5V73H89V61H90V66z
		 M103.1,73h-1V61.6h1V73z M106.9,64.5l0,1.4c0.3-0.5,0.7-0.9,1.2-1.2c0.5-0.3,1-0.4,1.6-0.4c0.9,0,1.6,0.3,2,0.8
		c0.4,0.5,0.7,1.3,0.7,2.3V73h-0.9v-5.6c0-0.8-0.2-1.3-0.5-1.7c-0.3-0.4-0.8-0.6-1.5-0.6c-0.6,0-1.1,0.2-1.5,0.5
		c-0.4,0.4-0.8,0.8-1,1.5V73H106v-8.5H106.9z M119.8,70.9c0-0.5-0.2-0.8-0.6-1.1c-0.4-0.3-0.9-0.5-1.7-0.7c-0.8-0.2-1.3-0.3-1.8-0.5
		c-0.4-0.2-0.7-0.5-0.9-0.8c-0.2-0.3-0.3-0.7-0.3-1.1c0-0.7,0.3-1.2,0.8-1.6c0.6-0.4,1.3-0.7,2.1-0.7c0.9,0,1.7,0.2,2.3,0.7
		c0.6,0.5,0.9,1.1,0.9,1.8h-0.9c0-0.5-0.2-0.9-0.6-1.2c-0.4-0.3-0.9-0.5-1.6-0.5c-0.6,0-1.1,0.1-1.5,0.4c-0.4,0.3-0.6,0.6-0.6,1.1
		c0,0.4,0.2,0.8,0.5,1c0.3,0.2,0.9,0.4,1.7,0.6c0.8,0.2,1.4,0.4,1.8,0.6c0.4,0.2,0.7,0.5,0.9,0.8s0.3,0.7,0.3,1.1
		c0,0.7-0.3,1.3-0.9,1.7c-0.6,0.4-1.3,0.6-2.2,0.6c-1,0-1.8-0.2-2.4-0.7c-0.6-0.5-0.9-1.1-0.9-1.8h0.9c0,0.5,0.3,1,0.7,1.3
		c0.4,0.3,1,0.5,1.7,0.5c0.7,0,1.2-0.1,1.6-0.4S119.8,71.3,119.8,70.9z M128.3,71.9c-0.6,0.8-1.5,1.2-2.7,1.2
		c-0.9,0-1.6-0.3-2.1-0.8c-0.5-0.5-0.7-1.3-0.7-2.3v-5.5h0.9v5.4c0,1.6,0.7,2.4,2,2.4c1.4,0,2.2-0.6,2.6-1.7v-6.1h0.9V73h-0.9
		L128.3,71.9z M135.6,65.3c-0.2,0-0.4-0.1-0.6-0.1c-0.6,0-1.1,0.2-1.5,0.5c-0.4,0.3-0.7,0.8-0.9,1.4V73h-0.9v-8.5h0.9l0,1.3
		c0.5-1,1.3-1.5,2.4-1.5c0.3,0,0.5,0,0.6,0.1L135.6,65.3z M142.1,73c-0.1-0.3-0.2-0.7-0.2-1.2c-0.3,0.4-0.7,0.8-1.3,1
		c-0.5,0.2-1,0.3-1.6,0.3c-0.8,0-1.5-0.2-2-0.7c-0.5-0.5-0.8-1-0.8-1.7c0-0.8,0.3-1.5,1-2c0.7-0.5,1.6-0.7,2.9-0.7h1.7v-1
		c0-0.6-0.2-1.1-0.6-1.4c-0.4-0.3-0.9-0.5-1.6-0.5c-0.7,0-1.2,0.2-1.6,0.5c-0.4,0.3-0.6,0.7-0.6,1.2l-0.9,0c0-0.7,0.3-1.3,0.9-1.7
		c0.6-0.5,1.4-0.7,2.3-0.7c0.9,0,1.7,0.2,2.2,0.7c0.5,0.5,0.8,1.1,0.8,2v4c0,0.8,0.1,1.4,0.3,1.8V73H142.1z M139.1,72.3
		c0.6,0,1.2-0.2,1.7-0.5c0.5-0.3,0.9-0.7,1.1-1.2v-1.9h-1.7c-0.9,0-1.7,0.2-2.2,0.5c-0.5,0.3-0.8,0.8-0.8,1.4c0,0.5,0.2,0.9,0.5,1.2
		C138.1,72.2,138.6,72.3,139.1,72.3z M146.2,64.5l0,1.4c0.3-0.5,0.7-0.9,1.2-1.2c0.5-0.3,1-0.4,1.6-0.4c0.9,0,1.6,0.3,2,0.8
		c0.4,0.5,0.7,1.3,0.7,2.3V73h-0.9v-5.6c0-0.8-0.2-1.3-0.5-1.7c-0.3-0.4-0.8-0.6-1.5-0.6c-0.6,0-1.1,0.2-1.5,0.5
		c-0.4,0.4-0.8,0.8-1,1.5V73h-0.9v-8.5H146.2z M157.2,72.4c0.7,0,1.2-0.2,1.6-0.5c0.4-0.4,0.7-0.8,0.7-1.4h0.9c0,0.5-0.2,1-0.5,1.4
		c-0.3,0.4-0.7,0.8-1.2,1c-0.5,0.2-1,0.4-1.6,0.4c-1.1,0-2-0.4-2.6-1.2c-0.6-0.8-1-1.8-1-3.1v-0.3c0-0.8,0.1-1.6,0.4-2.2
		c0.3-0.6,0.7-1.1,1.2-1.5c0.5-0.3,1.2-0.5,1.9-0.5c0.9,0,1.7,0.3,2.3,0.8c0.6,0.6,0.9,1.3,1,2.2h-0.9c0-0.7-0.3-1.2-0.7-1.6
		c-0.4-0.4-1-0.6-1.6-0.6c-0.8,0-1.5,0.3-2,0.9c-0.5,0.6-0.7,1.5-0.7,2.6v0.3c0,1.1,0.2,1.9,0.7,2.5
		C155.7,72.1,156.4,72.4,157.2,72.4z M165.6,73.2c-0.7,0-1.4-0.2-2-0.5c-0.6-0.4-1-0.8-1.4-1.5c-0.3-0.6-0.5-1.3-0.5-2.1v-0.3
		c0-0.8,0.2-1.5,0.5-2.2c0.3-0.7,0.8-1.2,1.3-1.5c0.6-0.4,1.2-0.6,1.8-0.6c1,0,1.8,0.4,2.4,1.1c0.6,0.7,0.9,1.7,0.9,2.9v0.5h-6V69
		c0,1,0.3,1.8,0.8,2.4c0.6,0.6,1.2,1,2.1,1c0.5,0,0.9-0.1,1.3-0.3c0.4-0.2,0.7-0.5,1-0.9l0.6,0.4C168,72.7,167,73.2,165.6,73.2z
		 M165.5,65.2c-0.7,0-1.3,0.3-1.8,0.8c-0.5,0.5-0.8,1.2-0.9,2.1h5.1v-0.1c0-0.8-0.3-1.5-0.7-2C166.8,65.4,166.2,65.2,165.5,65.2z"/>
</g>
</svg>
