<svg width="87" height="24" viewBox="0 0 87 24" fill="none" xmlns="http://www.w3.org/2000/svg">
<path d="M78.9744 12.6724L71.3179 0H68.002L76.2369 13.421L76.2201 24H78.9746V12.6724H78.9744ZM78.779 7.09507L80.3963 9.81056L86.3755 0H83.2356L78.779 7.09507ZM64.0724 2.42606C63.1834 1.35521 61.959 0.615634 60.5974 0.326995C59.6505 0.108998 57.8449 0 55.1807 0H50.2192V24H52.7985V2.34953H57.031C58.6766 2.34953 59.8532 2.49096 60.5608 2.77383C61.2659 3.05406 61.8659 3.54738 62.2771 4.18498C62.7103 4.83441 62.938 5.5992 62.9305 6.37981C62.9399 7.1748 62.7154 7.95502 62.285 8.62347C61.9852 9.08944 60.6183 10.2165 60.1549 10.5056L61.4794 12.5259C62.3301 12.0403 63.9879 10.6416 64.4885 9.83451C65.103 8.84351 65.4104 7.69448 65.4107 6.38744C65.4107 4.81913 64.9647 3.49863 64.0727 2.42594L64.0724 2.42606ZM38.2302 17.8955L45.9052 0H42.8591L36.7047 14.3566L38.2305 17.8958L38.2302 17.8955ZM35.3148 18.6723L27.2567 0H24.2217L34.5167 24H35.4634L36.6121 21.7289L35.3149 18.6725L35.3148 18.6723ZM55.7218 13.127L62.7859 23.9999H65.7525L58.5142 12.8565H58.5399L57.0208 10.539C56.9907 10.539 56.9634 10.5401 56.9323 10.5401L55.722 10.5305V13.1272L55.7218 13.127Z" fill="#F9423A"/>
<path d="M12.7243 23.9709C12.783 23.9681 12.8417 23.9641 12.8998 23.9606C13.1125 23.9478 13.3221 23.9306 13.5287 23.9091C13.5618 23.9057 13.5952 23.9026 13.6282 23.899C14.6037 23.7969 15.5621 23.5706 16.4803 23.2256C17.8081 22.7164 19.0264 21.9583 20.0699 20.9921C20.6625 20.447 21.1145 19.7675 21.6832 19.0822H17.8946C17.0695 19.7791 16.1246 20.3204 15.1061 20.6798C14.5703 20.877 14.0183 21.0273 13.4565 21.1292C13.1711 21.1809 12.8838 21.22 12.5946 21.2465H12.5919C12.3018 21.2727 12.0096 21.2858 11.7153 21.2859C9.30745 21.2859 7.28476 20.4384 5.6472 18.7436C4.00941 17.0488 2.95659 14.5037 2.90072 11.8539C2.90072 11.8539 2.8972 11.8326 2.8925 11.8004C2.91027 10.789 3.09889 9.78782 3.45037 8.83926C3.84246 7.75036 4.42526 6.73996 5.1715 5.85534C6.72322 4.01418 8.67482 3.01356 11.0263 2.85346L11.028 2.84008C11.2964 2.81989 11.5673 2.8096 11.8407 2.80921C13.1833 2.80581 14.51 3.09944 15.7257 3.66907C16.9574 4.24255 17.9477 4.99763 18.6967 5.93433C19.4459 6.87118 20.1585 8.71215 20.4083 10.4836H7.9195L5.16481 13.0211H23.6378C23.6202 11.0727 23.2857 8.53069 22.6341 6.98609C22.3763 6.37362 22.0636 5.78571 21.7 5.22952C21.519 4.95291 21.3253 4.68445 21.1189 4.42412C20.4295 3.53756 19.6191 2.75209 18.7115 2.09067C18.3619 1.83841 17.9974 1.60751 17.62 1.39924C17.4322 1.29548 17.2411 1.19767 17.0467 1.10581C16.6562 0.920589 16.2549 0.758991 15.845 0.621888C15.6386 0.552718 15.4292 0.489338 15.2167 0.431748C14.7849 0.315068 14.3469 0.222709 13.9047 0.155104C13.6799 0.120519 13.4521 0.0917241 13.2211 0.0687194C12.7587 0.0220057 11.5091 0.0157851 11.362 0.0202452C11.362 0.0202452 9.46586 0.149353 8.5695 0.415668C6.26398 1.02553 4.3188 2.31567 2.75154 4.31907C2.22844 4.98398 1.77324 5.6996 1.39274 6.45522C1.26864 6.70209 1.15322 6.95197 1.0465 7.20487C0.88492 7.54521 0.741565 7.8939 0.617035 8.24947C0.151005 9.59271 -0.0542742 11.0126 0.0122229 12.4328C0.0605254 13.3178 0.207885 14.1946 0.451542 15.0468C0.622689 15.7392 0.855707 16.4148 1.14779 17.0655C1.14849 17.0673 1.14896 17.0687 1.14955 17.0704C1.40918 17.6495 1.71085 18.2089 2.05213 18.744C2.40783 19.3008 2.80302 19.8315 3.23464 20.3319C5.33378 22.7719 8.24458 23.9917 11.967 23.9915C12.224 23.9915 12.4756 23.9835 12.7245 23.9714L12.7243 23.9709Z" fill="#F9423A"/>
</svg>
