<svg width="175" height="77" viewBox="0 0 175 77" fill="none" xmlns="http://www.w3.org/2000/svg">
<g filter="url(#filter0_d)">
<path d="M158.719 25.3448L143.429 0H136.807L153.252 26.842L153.219 48H158.72V25.3448H158.719ZM158.329 14.1901L161.559 19.6211L173.5 0H167.229L158.329 14.1901ZM128.959 4.85211C127.183 2.71041 124.738 1.23127 122.019 0.653991C120.128 0.217997 116.522 0 111.201 0H101.292V48H106.444V4.69906H114.896C118.183 4.69906 120.533 4.98193 121.946 5.54765C123.354 6.10812 124.552 7.09477 125.373 8.36995C126.239 9.66881 126.693 11.1984 126.678 12.7596C126.697 14.3496 126.249 15.91 125.389 17.2469C124.79 18.1789 122.061 20.4331 121.135 21.0113L123.78 25.0519C125.479 24.0805 128.79 21.2831 129.79 19.669C131.017 17.687 131.631 15.389 131.631 12.7749C131.631 9.63826 130.741 6.99726 128.959 4.85188L128.959 4.85211ZM77.3494 35.7911L92.6771 0H86.5937L74.3029 28.7131L77.3501 35.7915L77.3494 35.7911ZM71.5271 37.3446L55.4343 0H49.3732L69.9332 48H71.8238L74.1179 43.4577L71.5273 37.3451L71.5271 37.3446ZM112.282 26.254L126.39 47.9998H132.314L117.859 25.7129H117.91L114.876 21.0779C114.816 21.0779 114.761 21.0803 114.699 21.0803L112.282 21.061V26.2545L112.282 26.254Z" fill="#ED5344"/>
<path d="M26.4117 47.9416C26.5289 47.936 26.6461 47.928 26.7621 47.921C27.1868 47.8953 27.6055 47.861 28.018 47.8179C28.0841 47.8111 28.1509 47.805 28.2168 47.7977C30.1649 47.5935 32.0791 47.141 33.9127 46.451C36.5645 45.4326 38.9976 43.9164 41.0814 41.9839C42.2649 40.8937 43.1676 39.5348 44.3035 38.1642H36.7372C35.0893 39.5579 33.2024 40.6405 31.1683 41.3592C30.0982 41.7537 28.9959 42.0544 27.8738 42.2581C27.3039 42.3615 26.7302 42.4397 26.1526 42.4928H26.1473C25.5678 42.5451 24.9842 42.5713 24.3965 42.5714C19.5879 42.5714 15.5484 40.8766 12.278 37.4869C9.00716 34.0973 6.90459 29.0071 6.79301 23.7076C6.79301 23.7076 6.78598 23.6649 6.7766 23.6005C6.81209 21.5777 7.18877 19.5754 7.89071 17.6782C8.67375 15.5005 9.83766 13.4796 11.328 11.7104C14.4269 8.02809 18.3244 6.02684 23.0206 5.70665L23.0239 5.67989C23.56 5.63951 24.1011 5.61893 24.6471 5.61815C27.3283 5.61134 29.9778 6.19861 32.4058 7.33787C34.8656 8.48482 36.8433 9.99499 38.3391 11.8684C39.8353 13.7421 41.2584 17.424 41.7574 20.967H16.816L11.3146 26.0419H48.2069C48.1718 22.1451 47.5037 17.0611 46.2023 13.9719C45.6875 12.747 45.0632 11.5711 44.337 10.4588C43.9754 9.90555 43.5885 9.36862 43.1765 8.84796C41.7997 7.07485 40.1813 5.50391 38.3687 4.18106C37.6705 3.67655 36.9425 3.21475 36.1887 2.7982C35.8137 2.59069 35.4321 2.39507 35.0439 2.21134C34.264 1.8409 33.4625 1.51771 32.6439 1.2435C32.2318 1.10516 31.8136 0.9784 31.3892 0.86322C30.5268 0.629862 29.652 0.445142 28.769 0.309934C28.3201 0.240763 27.865 0.183173 27.4039 0.137164C26.4803 0.0437368 23.9847 0.0312955 23.691 0.0402157C23.691 0.0402157 19.9042 0.298432 18.1141 0.831061C13.5098 2.05078 9.62504 4.63106 6.49509 8.63787C5.45041 9.96769 4.54133 11.3989 3.78143 12.9102C3.53359 13.4039 3.3031 13.9037 3.08995 14.4095C2.76727 15.0901 2.48097 15.7875 2.23228 16.4987C1.30157 19.1851 0.891609 22.0249 1.02441 24.8653C1.12087 26.6353 1.41517 28.3889 1.90177 30.0933C2.24357 31.4781 2.70893 32.8294 3.29224 34.1308C3.29364 34.1343 3.29458 34.1372 3.29575 34.1404C3.81427 35.2987 4.41673 36.4174 5.0983 37.4876C5.80867 38.6014 6.59789 39.6628 7.45988 40.6635C11.6521 45.5434 17.4652 47.9832 24.8993 47.9827C25.4124 47.9827 25.915 47.9667 26.4121 47.9426L26.4117 47.9416Z" fill="#ED5344"/>
<path d="M6.4375 73V61.625H9.79688C11.0156 61.625 11.9401 61.8776 12.5703 62.3828C13.2005 62.8828 13.5156 63.6224 13.5156 64.6016C13.5156 65.1901 13.3542 65.7031 13.0312 66.1406C12.7135 66.5729 12.276 66.8828 11.7188 67.0703C12.3802 67.2161 12.9115 67.5417 13.3125 68.0469C13.7188 68.5521 13.9219 69.1354 13.9219 69.7969C13.9219 70.8021 13.5964 71.5885 12.9453 72.1562C12.2995 72.7188 11.3984 73 10.2422 73H6.4375ZM7.39844 67.5312V72.1875H10.2812C11.1042 72.1875 11.7552 71.9792 12.2344 71.5625C12.7188 71.1406 12.9609 70.5573 12.9609 69.8125C12.9609 69.1094 12.7292 68.5547 12.2656 68.1484C11.8073 67.737 11.1719 67.5312 10.3594 67.5312H7.39844ZM7.39844 66.7266H10.0234C10.8255 66.7109 11.4453 66.5234 11.8828 66.1641C12.3255 65.7995 12.5469 65.2708 12.5469 64.5781C12.5469 63.849 12.3177 63.3125 11.8594 62.9688C11.4062 62.6198 10.7188 62.4453 9.79688 62.4453H7.39844V66.7266ZM19.3047 73.1562C18.5859 73.1562 17.9349 72.9792 17.3516 72.625C16.7734 72.2708 16.3229 71.7786 16 71.1484C15.6771 70.513 15.5156 69.8021 15.5156 69.0156V68.6797C15.5156 67.8672 15.6719 67.1354 15.9844 66.4844C16.3021 65.8333 16.7422 65.3229 17.3047 64.9531C17.8672 64.5781 18.4766 64.3906 19.1328 64.3906C20.1589 64.3906 20.9714 64.7422 21.5703 65.4453C22.1745 66.1432 22.4766 67.099 22.4766 68.3125V68.8359H16.4453V69.0156C16.4453 69.974 16.7188 70.7734 17.2656 71.4141C17.8177 72.0495 18.5104 72.3672 19.3438 72.3672C19.8438 72.3672 20.2839 72.276 20.6641 72.0938C21.0495 71.9115 21.3984 71.6198 21.7109 71.2188L22.2969 71.6641C21.6094 72.6589 20.612 73.1562 19.3047 73.1562ZM19.1328 65.1875C18.4297 65.1875 17.8359 65.4453 17.3516 65.9609C16.8724 66.4766 16.5807 67.1693 16.4766 68.0391H21.5469V67.9375C21.5208 67.125 21.2891 66.4635 20.8516 65.9531C20.4141 65.4427 19.8411 65.1875 19.1328 65.1875ZM25.75 62.3828V64.5469H27.5V65.3125H25.75V70.9453C25.75 71.4141 25.8333 71.763 26 71.9922C26.1719 72.2214 26.4557 72.3359 26.8516 72.3359C27.0078 72.3359 27.2604 72.3099 27.6094 72.2578L27.6484 73.0234C27.4036 73.112 27.0703 73.1562 26.6484 73.1562C26.0078 73.1562 25.5417 72.9714 25.25 72.6016C24.9583 72.2266 24.8125 71.6771 24.8125 70.9531V65.3125H23.2578V64.5469H24.8125V62.3828H25.75ZM30.8906 62.3828V64.5469H32.6406V65.3125H30.8906V70.9453C30.8906 71.4141 30.974 71.763 31.1406 71.9922C31.3125 72.2214 31.5964 72.3359 31.9922 72.3359C32.1484 72.3359 32.401 72.3099 32.75 72.2578L32.7891 73.0234C32.5443 73.112 32.2109 73.1562 31.7891 73.1562C31.1484 73.1562 30.6823 72.9714 30.3906 72.6016C30.099 72.2266 29.9531 71.6771 29.9531 70.9531V65.3125H28.3984V64.5469H29.9531V62.3828H30.8906ZM37.8516 73.1562C37.1328 73.1562 36.4818 72.9792 35.8984 72.625C35.3203 72.2708 34.8698 71.7786 34.5469 71.1484C34.224 70.513 34.0625 69.8021 34.0625 69.0156V68.6797C34.0625 67.8672 34.2188 67.1354 34.5312 66.4844C34.849 65.8333 35.2891 65.3229 35.8516 64.9531C36.4141 64.5781 37.0234 64.3906 37.6797 64.3906C38.7057 64.3906 39.5182 64.7422 40.1172 65.4453C40.7214 66.1432 41.0234 67.099 41.0234 68.3125V68.8359H34.9922V69.0156C34.9922 69.974 35.2656 70.7734 35.8125 71.4141C36.3646 72.0495 37.0573 72.3672 37.8906 72.3672C38.3906 72.3672 38.8307 72.276 39.2109 72.0938C39.5964 71.9115 39.9453 71.6198 40.2578 71.2188L40.8438 71.6641C40.1562 72.6589 39.1589 73.1562 37.8516 73.1562ZM37.6797 65.1875C36.9766 65.1875 36.3828 65.4453 35.8984 65.9609C35.4193 66.4766 35.1276 67.1693 35.0234 68.0391H40.0938V67.9375C40.0677 67.125 39.8359 66.4635 39.3984 65.9531C38.9609 65.4427 38.388 65.1875 37.6797 65.1875ZM46.75 65.3438C46.5521 65.3073 46.3411 65.2891 46.1172 65.2891C45.5339 65.2891 45.0391 65.4531 44.6328 65.7812C44.2318 66.1042 43.9453 66.5755 43.7734 67.1953V73H42.8438V64.5469H43.7578L43.7734 65.8906C44.2682 64.8906 45.0625 64.3906 46.1562 64.3906C46.4167 64.3906 46.6224 64.4245 46.7734 64.4922L46.75 65.3438ZM60.7734 73H59.8047V67.5469H53.3047V73H52.3438V61.625H53.3047V66.7344H59.8047V61.625H60.7734V73ZM66.7266 73.1562C66.0078 73.1562 65.3568 72.9792 64.7734 72.625C64.1953 72.2708 63.7448 71.7786 63.4219 71.1484C63.099 70.513 62.9375 69.8021 62.9375 69.0156V68.6797C62.9375 67.8672 63.0938 67.1354 63.4062 66.4844C63.724 65.8333 64.1641 65.3229 64.7266 64.9531C65.2891 64.5781 65.8984 64.3906 66.5547 64.3906C67.5807 64.3906 68.3932 64.7422 68.9922 65.4453C69.5964 66.1432 69.8984 67.099 69.8984 68.3125V68.8359H63.8672V69.0156C63.8672 69.974 64.1406 70.7734 64.6875 71.4141C65.2396 72.0495 65.9323 72.3672 66.7656 72.3672C67.2656 72.3672 67.7057 72.276 68.0859 72.0938C68.4714 71.9115 68.8203 71.6198 69.1328 71.2188L69.7188 71.6641C69.0312 72.6589 68.0339 73.1562 66.7266 73.1562ZM66.5547 65.1875C65.8516 65.1875 65.2578 65.4453 64.7734 65.9609C64.2943 66.4766 64.0026 67.1693 63.8984 68.0391H68.9688V67.9375C68.9427 67.125 68.7109 66.4635 68.2734 65.9531C67.8359 65.4427 67.263 65.1875 66.5547 65.1875ZM77.0547 73C76.9609 72.7344 76.901 72.3411 76.875 71.8203C76.5469 72.2474 76.1276 72.5781 75.6172 72.8125C75.112 73.0417 74.5755 73.1562 74.0078 73.1562C73.1953 73.1562 72.5365 72.9297 72.0312 72.4766C71.5312 72.0234 71.2812 71.4505 71.2812 70.7578C71.2812 69.9349 71.6224 69.2839 72.3047 68.8047C72.9922 68.3255 73.9479 68.0859 75.1719 68.0859H76.8672V67.125C76.8672 66.5208 76.6797 66.0469 76.3047 65.7031C75.9349 65.3542 75.3932 65.1797 74.6797 65.1797C74.0286 65.1797 73.4896 65.3464 73.0625 65.6797C72.6354 66.013 72.4219 66.4141 72.4219 66.8828L71.4844 66.875C71.4844 66.2031 71.7969 65.6224 72.4219 65.1328C73.0469 64.638 73.8151 64.3906 74.7266 64.3906C75.6693 64.3906 76.4115 64.6276 76.9531 65.1016C77.5 65.5703 77.7812 66.2266 77.7969 67.0703V71.0703C77.7969 71.888 77.8828 72.5 78.0547 72.9062V73H77.0547ZM74.1172 72.3281C74.7422 72.3281 75.2995 72.1771 75.7891 71.875C76.2839 71.5729 76.6432 71.1693 76.8672 70.6641V68.8047H75.1953C74.263 68.8151 73.5339 68.987 73.0078 69.3203C72.4818 69.6484 72.2188 70.1016 72.2188 70.6797C72.2188 71.1536 72.3932 71.5469 72.7422 71.8594C73.0964 72.1719 73.5547 72.3281 74.1172 72.3281ZM81.3438 73H80.4062V61H81.3438V73ZM85.3438 62.3828V64.5469H87.0938V65.3125H85.3438V70.9453C85.3438 71.4141 85.4271 71.763 85.5938 71.9922C85.7656 72.2214 86.0495 72.3359 86.4453 72.3359C86.6016 72.3359 86.8542 72.3099 87.2031 72.2578L87.2422 73.0234C86.9974 73.112 86.6641 73.1562 86.2422 73.1562C85.6016 73.1562 85.1354 72.9714 84.8438 72.6016C84.5521 72.2266 84.4062 71.6771 84.4062 70.9531V65.3125H82.8516V64.5469H84.4062V62.3828H85.3438ZM89.9609 65.9766C90.2682 65.4714 90.6615 65.0807 91.1406 64.8047C91.6198 64.5286 92.1432 64.3906 92.7109 64.3906C93.6172 64.3906 94.2917 64.6458 94.7344 65.1562C95.1771 65.6667 95.401 66.4323 95.4062 67.4531V73H94.4766V67.4453C94.4714 66.6901 94.3099 66.1276 93.9922 65.7578C93.6797 65.388 93.1771 65.2031 92.4844 65.2031C91.9062 65.2031 91.3932 65.3854 90.9453 65.75C90.5026 66.1094 90.1745 66.5964 89.9609 67.2109V73H89.0312V61H89.9609V65.9766ZM103.094 73H102.133V61.625H103.094V73ZM106.859 64.5469L106.891 65.9922C107.208 65.4714 107.604 65.0755 108.078 64.8047C108.552 64.5286 109.076 64.3906 109.648 64.3906C110.555 64.3906 111.229 64.6458 111.672 65.1562C112.115 65.6667 112.339 66.4323 112.344 67.4531V73H111.414V67.4453C111.409 66.6901 111.247 66.1276 110.93 65.7578C110.617 65.388 110.115 65.2031 109.422 65.2031C108.844 65.2031 108.331 65.3854 107.883 65.75C107.44 66.1094 107.112 66.5964 106.898 67.2109V73H105.969V64.5469H106.859ZM119.828 70.8516C119.828 70.388 119.641 70.0156 119.266 69.7344C118.896 69.4531 118.336 69.2344 117.586 69.0781C116.836 68.9167 116.253 68.7344 115.836 68.5312C115.424 68.3229 115.117 68.0703 114.914 67.7734C114.716 67.4766 114.617 67.1172 114.617 66.6953C114.617 66.0286 114.896 65.4792 115.453 65.0469C116.01 64.6094 116.724 64.3906 117.594 64.3906C118.536 64.3906 119.292 64.625 119.859 65.0938C120.432 65.5573 120.719 66.1641 120.719 66.9141H119.781C119.781 66.4193 119.573 66.0078 119.156 65.6797C118.745 65.3516 118.224 65.1875 117.594 65.1875C116.979 65.1875 116.484 65.3255 116.109 65.6016C115.74 65.8724 115.555 66.2266 115.555 66.6641C115.555 67.0859 115.708 67.4141 116.016 67.6484C116.328 67.8776 116.893 68.0885 117.711 68.2812C118.534 68.474 119.148 68.6797 119.555 68.8984C119.966 69.1172 120.271 69.3802 120.469 69.6875C120.667 69.9948 120.766 70.3672 120.766 70.8047C120.766 71.5182 120.477 72.0885 119.898 72.5156C119.326 72.9427 118.576 73.1562 117.648 73.1562C116.664 73.1562 115.865 72.9193 115.25 72.4453C114.641 71.9661 114.336 71.362 114.336 70.6328H115.273C115.31 71.1797 115.539 71.6068 115.961 71.9141C116.388 72.2161 116.951 72.3672 117.648 72.3672C118.299 72.3672 118.826 72.224 119.227 71.9375C119.628 71.651 119.828 71.2891 119.828 70.8516ZM128.312 71.9297C127.75 72.7474 126.852 73.1562 125.617 73.1562C124.716 73.1562 124.031 72.8958 123.562 72.375C123.094 71.849 122.854 71.0729 122.844 70.0469V64.5469H123.773V69.9297C123.773 71.5391 124.424 72.3438 125.727 72.3438C127.081 72.3438 127.938 71.7839 128.297 70.6641V64.5469H129.234V73H128.328L128.312 71.9297ZM135.578 65.3438C135.38 65.3073 135.169 65.2891 134.945 65.2891C134.362 65.2891 133.867 65.4531 133.461 65.7812C133.06 66.1042 132.773 66.5755 132.602 67.1953V73H131.672V64.5469H132.586L132.602 65.8906C133.096 64.8906 133.891 64.3906 134.984 64.3906C135.245 64.3906 135.451 64.4245 135.602 64.4922L135.578 65.3438ZM142.086 73C141.992 72.7344 141.932 72.3411 141.906 71.8203C141.578 72.2474 141.159 72.5781 140.648 72.8125C140.143 73.0417 139.607 73.1562 139.039 73.1562C138.227 73.1562 137.568 72.9297 137.062 72.4766C136.562 72.0234 136.312 71.4505 136.312 70.7578C136.312 69.9349 136.654 69.2839 137.336 68.8047C138.023 68.3255 138.979 68.0859 140.203 68.0859H141.898V67.125C141.898 66.5208 141.711 66.0469 141.336 65.7031C140.966 65.3542 140.424 65.1797 139.711 65.1797C139.06 65.1797 138.521 65.3464 138.094 65.6797C137.667 66.013 137.453 66.4141 137.453 66.8828L136.516 66.875C136.516 66.2031 136.828 65.6224 137.453 65.1328C138.078 64.638 138.846 64.3906 139.758 64.3906C140.701 64.3906 141.443 64.6276 141.984 65.1016C142.531 65.5703 142.812 66.2266 142.828 67.0703V71.0703C142.828 71.888 142.914 72.5 143.086 72.9062V73H142.086ZM139.148 72.3281C139.773 72.3281 140.331 72.1771 140.82 71.875C141.315 71.5729 141.674 71.1693 141.898 70.6641V68.8047H140.227C139.294 68.8151 138.565 68.987 138.039 69.3203C137.513 69.6484 137.25 70.1016 137.25 70.6797C137.25 71.1536 137.424 71.5469 137.773 71.8594C138.128 72.1719 138.586 72.3281 139.148 72.3281ZM146.219 64.5469L146.25 65.9922C146.568 65.4714 146.964 65.0755 147.438 64.8047C147.911 64.5286 148.435 64.3906 149.008 64.3906C149.914 64.3906 150.589 64.6458 151.031 65.1562C151.474 65.6667 151.698 66.4323 151.703 67.4531V73H150.773V67.4453C150.768 66.6901 150.607 66.1276 150.289 65.7578C149.977 65.388 149.474 65.2031 148.781 65.2031C148.203 65.2031 147.69 65.3854 147.242 65.75C146.799 66.1094 146.471 66.5964 146.258 67.2109V73H145.328V64.5469H146.219ZM157.25 72.3672C157.901 72.3672 158.445 72.1849 158.883 71.8203C159.326 71.4505 159.565 70.974 159.602 70.3906H160.5C160.474 70.9062 160.312 71.3776 160.016 71.8047C159.719 72.2266 159.323 72.5573 158.828 72.7969C158.339 73.0365 157.812 73.1562 157.25 73.1562C156.141 73.1562 155.26 72.7708 154.609 72C153.964 71.2292 153.641 70.1927 153.641 68.8906V68.6094C153.641 67.776 153.786 67.0391 154.078 66.3984C154.37 65.7578 154.786 65.263 155.328 64.9141C155.875 64.5651 156.513 64.3906 157.242 64.3906C158.169 64.3906 158.932 64.6667 159.531 65.2188C160.135 65.7708 160.458 66.4974 160.5 67.3984H159.602C159.56 66.737 159.32 66.2031 158.883 65.7969C158.451 65.3906 157.904 65.1875 157.242 65.1875C156.398 65.1875 155.742 65.4922 155.273 66.1016C154.81 66.7109 154.578 67.5651 154.578 68.6641V68.9375C154.578 70.0156 154.81 70.8568 155.273 71.4609C155.742 72.0651 156.401 72.3672 157.25 72.3672ZM165.648 73.1562C164.93 73.1562 164.279 72.9792 163.695 72.625C163.117 72.2708 162.667 71.7786 162.344 71.1484C162.021 70.513 161.859 69.8021 161.859 69.0156V68.6797C161.859 67.8672 162.016 67.1354 162.328 66.4844C162.646 65.8333 163.086 65.3229 163.648 64.9531C164.211 64.5781 164.82 64.3906 165.477 64.3906C166.503 64.3906 167.315 64.7422 167.914 65.4453C168.518 66.1432 168.82 67.099 168.82 68.3125V68.8359H162.789V69.0156C162.789 69.974 163.062 70.7734 163.609 71.4141C164.161 72.0495 164.854 72.3672 165.688 72.3672C166.188 72.3672 166.628 72.276 167.008 72.0938C167.393 71.9115 167.742 71.6198 168.055 71.2188L168.641 71.6641C167.953 72.6589 166.956 73.1562 165.648 73.1562ZM165.477 65.1875C164.773 65.1875 164.18 65.4453 163.695 65.9609C163.216 66.4766 162.924 67.1693 162.82 68.0391H167.891V67.9375C167.865 67.125 167.633 66.4635 167.195 65.9531C166.758 65.4427 166.185 65.1875 165.477 65.1875Z" fill="#F4F4F4"/>
</g>
<defs>
<filter id="filter0_d" x="0" y="0" width="174.5" height="75.1562" filterUnits="userSpaceOnUse" color-interpolation-filters="sRGB">
<feFlood flood-opacity="0" result="BackgroundImageFix"/>
<feColorMatrix in="SourceAlpha" type="matrix" values="0 0 0 0 0 0 0 0 0 0 0 0 0 0 0 0 0 0 127 0"/>
<feOffset dy="1"/>
<feGaussianBlur stdDeviation="0.5"/>
<feColorMatrix type="matrix" values="0 0 0 0 0 0 0 0 0 0 0 0 0 0 0 0 0 0 0.1 0"/>
<feBlend mode="multiply" in2="BackgroundImageFix" result="effect1_dropShadow"/>
<feBlend mode="normal" in="SourceGraphic" in2="effect1_dropShadow" result="shape"/>
</filter>
</defs>
</svg>
