<svg width="40" height="40" viewBox="0 0 40 40" fill="none" xmlns="http://www.w3.org/2000/svg">
<circle cx="20" cy="20" r="18.5" stroke="#8ED081" stroke-width="3"/>
<path d="M20.3067 18.5333C17.28 17.7467 16.3067 16.9333 16.3067 15.6667C16.3067 14.2133 17.6533 13.2 19.9067 13.2C22.28 13.2 23.16 14.3333 23.24 16H26.1867C26.0933 13.7067 24.6933 11.6 21.9067 10.92V8H17.9067V10.88C15.32 11.44 13.24 13.12 13.24 15.6933C13.24 18.7733 15.7867 20.3067 19.5067 21.2C22.84 22 23.5067 23.1733 23.5067 24.4133C23.5067 25.3333 22.8533 26.8 19.9067 26.8C17.16 26.8 16.08 25.5733 15.9333 24H13C13.16 26.92 15.3467 28.56 17.9067 29.1067V32H21.9067V29.1333C24.5067 28.64 26.5733 27.1333 26.5733 24.4C26.5733 20.6133 23.3333 19.32 20.3067 18.5333Z" fill="#8ED081"/>
</svg>
