<svg width="20" height="24" viewBox="0 0 20 24" fill="none" xmlns="http://www.w3.org/2000/svg">
<path d="M9.99964 0C7.50532 0 5.47656 2.02931 5.47656 4.52363V6.86721C5.47656 9.36172 7.50532 11.391 9.99964 11.391C12.4941 11.391 14.5227 9.36172 14.5227 6.86721V4.52363C14.5228 2.02931 12.4941 0 9.99964 0Z" fill="#ED5344"/>
<path d="M19.975 17.2857C18.5266 14.8175 16.2116 12.9876 13.4563 12.1332C13.3924 12.1133 13.3233 12.1302 13.2758 12.1772C11.9941 13.441 10.4014 14.4269 10.0033 14.6651C9.57825 14.3934 7.78802 13.2265 6.72374 12.1772C6.67633 12.1302 6.6067 12.1133 6.54318 12.1332C3.78755 12.9878 1.47268 14.8177 0.0248617 17.2859C-0.00828725 17.3424 -0.00828725 17.4126 0.0248617 17.469C2.08084 20.9725 5.90297 23.1488 9.99975 23.1488C14.0967 23.1488 17.919 20.9725 19.975 17.469C20.0083 17.4124 20.0083 17.3422 19.975 17.2857ZM16.1516 18.635C16.1516 18.7348 16.0566 18.8111 15.9569 18.8111H14.7319C14.6321 18.8111 14.5232 18.8969 14.5232 18.9969V20.2637C14.5232 20.3634 14.4699 20.4395 14.37 20.4395H13.2698C13.17 20.4395 13.0759 20.3634 13.0759 20.2637V18.9969C13.0756 18.897 13.0074 18.8111 12.9076 18.8111H11.6298C11.53 18.8111 11.4474 18.7346 11.4474 18.635V17.5442C11.4474 17.4444 11.53 17.3639 11.6298 17.3639H12.9076C13.0074 17.3639 13.0756 17.2824 13.0756 17.1824V15.914C13.0756 15.8142 13.1696 15.7355 13.2695 15.7355H14.3578C14.4575 15.7355 14.523 15.8142 14.523 15.914V17.1861C14.523 17.2861 14.6197 17.3637 14.7197 17.3637H15.9569C16.0566 17.3637 16.1516 17.4481 16.1516 17.5479V18.635Z" fill="#ED5344"/>
</svg>
