<svg width="18" height="18" viewBox="0 0 18 18" fill="none" xmlns="http://www.w3.org/2000/svg">
<rect x="0.5" y="0.5" width="17" height="17" rx="8.5" stroke="url(#paint0_linear_3802_5140)"/>
<path d="M8.84448 10.9619C8.28187 10.9619 7.80644 10.5019 7.89886 9.94696C7.93696 9.71824 7.98994 9.51749 8.05781 9.34473C8.2125 8.94629 8.46328 8.60176 8.81016 8.31113C9.15703 8.02051 9.41953 7.75566 9.59766 7.5166C9.78047 7.27285 9.87188 7.00566 9.87188 6.71504C9.87188 6.00723 9.56719 5.65332 8.95781 5.65332C8.67656 5.65332 8.44922 5.75645 8.27578 5.9627C7.95425 6.34505 7.6035 6.79941 7.10392 6.79941H6.83506C6.16873 6.79941 5.59404 6.23647 5.8288 5.61286C5.97626 5.22117 6.20364 4.88778 6.51094 4.6127C7.09219 4.0877 7.90781 3.8252 8.95781 3.8252C10.0031 3.8252 10.8117 4.0666 11.3836 4.54941C11.9602 5.03223 12.2484 5.71895 12.2484 6.60957C12.2484 6.99863 12.1711 7.35254 12.0164 7.67129C11.8617 7.99004 11.6133 8.31582 11.2711 8.64863L10.4625 9.40098C10.2328 9.62129 10.0734 9.84863 9.98438 10.083C9.80422 10.5476 9.43957 10.9619 8.94126 10.9619H8.84448ZM7.5375 13.0994C7.5375 12.7525 7.66172 12.4689 7.91016 12.2486C8.16328 12.0236 8.47734 11.9111 8.85234 11.9111C9.22734 11.9111 9.53906 12.0236 9.7875 12.2486C10.0406 12.4689 10.1672 12.7525 10.1672 13.0994C10.1672 13.4463 10.0406 13.7322 9.7875 13.9572C9.53906 14.1775 9.22734 14.2877 8.85234 14.2877C8.47734 14.2877 8.16328 14.1775 7.91016 13.9572C7.66172 13.7322 7.5375 13.4463 7.5375 13.0994Z" fill="url(#paint1_linear_3802_5140)"/>
<defs>
<linearGradient id="paint0_linear_3802_5140" x1="0" y1="0" x2="20.8634" y2="4.38914" gradientUnits="userSpaceOnUse">
<stop stop-color="#022639"/>
<stop offset="1" stop-color="#003C5C"/>
</linearGradient>
<linearGradient id="paint1_linear_3802_5140" x1="5.625" y1="3.8252" x2="13.5021" y2="4.87428" gradientUnits="userSpaceOnUse">
<stop stop-color="#022639"/>
<stop offset="1" stop-color="#003C5C"/>
</linearGradient>
</defs>
</svg>
