<svg width="20" height="20" viewBox="0 0 20 20" fill="none" xmlns="http://www.w3.org/2000/svg">
<path d="M9.99 0C4.47 0 0 4.48 0 10C0 15.52 4.47 20 9.99 20C15.52 20 20 15.52 20 10C20 4.48 15.52 0 9.99 0ZM10 18C5.58 18 2 14.42 2 10C2 5.58 5.58 2 10 2C14.42 2 18 5.58 18 10C18 14.42 14.42 18 10 18Z" fill="url(#paint0_linear)"/>
<path d="M10.5 5H9V11L14.25 14.15L15 12.92L10.5 10.25V5Z" fill="url(#paint1_linear)"/>
<defs>
<linearGradient id="paint0_linear" x1="0" y1="0" x2="23.1815" y2="4.87682" gradientUnits="userSpaceOnUse">
<stop stop-color="#022639"/>
<stop offset="1" stop-color="#003C5C"/>
</linearGradient>
<linearGradient id="paint1_linear" x1="9" y1="5" x2="16.1266" y2="5.98312" gradientUnits="userSpaceOnUse">
<stop stop-color="#022639"/>
<stop offset="1" stop-color="#003C5C"/>
</linearGradient>
</defs>
</svg>
