<svg id="wellness-and-fitness-logo" data-name="Wellness and Fitness Logo" xmlns="http://www.w3.org/2000/svg" viewBox="0 0 50 50">
  <defs>
    <style>
      .wellness-and-fitness-logo-shape-1 {
        fill: none;
        stroke: #00263a;
        stroke-width: 2px;
      }
      .wellness-and-fitness-logo-shape-2 {
        fill: #00263a;
      }
    </style>
  </defs>
  <title>Wellness and Fitness Logo</title>
  <path class="wellness-and-fitness-logo-shape-1" d="M25,49A24,24,0,1,0,1,25,24,24,0,0,0,25,49Z" />
  <path class="wellness-and-fitness-logo-shape-2" d="M11.11,21.2a2.63,2.63,0,1,0-2.63-2.63A2.63,2.63,0,0,0,11.11,21.2Z" />
  <path class="wellness-and-fitness-logo-shape-2" d="M32.46,42.11h0l-9.6-16.3c-.13-.18-.48-.63-.6-.75-.64-.62-.79-.45-1.08-1.57a5.57,5.57,0,0,0-.27-1L11.76,6.91l0,.06a1.18,1.18,0,0,0-.85-.29,1.17,1.17,0,0,0-.45.13,1.12,1.12,0,0,0-.36.29,1.23,1.23,0,0,0-.21.41A1.44,1.44,0,0,0,9.8,8a1.21,1.21,0,0,0,.15.44,1.26,1.26,0,0,0,.31.34l5.85,10.47-4,3.45-2,5.72a1.06,1.06,0,0,0-.09.25h0a1,1,0,0,0,0,.24,1.32,1.32,0,0,0,.08.44,1.21,1.21,0,0,0,.25.37,1.19,1.19,0,0,0,.38.25,1.12,1.12,0,0,0,.44.09l5.76.14L13,34.4s-.36.35-.36.57.08,7.81.08,7.81h0a1.11,1.11,0,0,0,.39.76,1.12,1.12,0,0,0,.8.28A1.13,1.13,0,0,0,15,42.67l0-7.1,6.3-4.65,9.18,12.45a1.19,1.19,0,0,0,.72.44A1.15,1.15,0,0,0,32.58,43a1.13,1.13,0,0,0-.12-.84ZM13,28l1.05-2.78,3,2.78Z" />
  <path class="wellness-and-fitness-logo-shape-2" d="M14.94,10a16.81,16.81,0,0,1,5.47-1.78L20.2,6.36a18.57,18.57,0,0,0-6.2,2Z" />
  <path class="wellness-and-fitness-logo-shape-2" d="M39.52,23a16.74,16.74,0,0,1,.1,2.55l1.89.13a18.58,18.58,0,0,0-.11-2.89c-.06-.54-.15-1.06-.25-1.58l-1.85.42C39.39,22.06,39.46,22.52,39.52,23Z" />
  <path class="wellness-and-fitness-logo-shape-2" d="M22.57,8.07a16.7,16.7,0,0,1,5.69.9l.66-1.78a18.55,18.55,0,0,0-6.44-1Z" />
  <path class="wellness-and-fitness-logo-shape-2" d="M36,14.47a16.57,16.57,0,0,1,2.74,5.06L40.57,19a18.45,18.45,0,0,0-3.11-5.73Z" />
  <path class="wellness-and-fitness-logo-shape-2" d="M39.39,27.67a16.54,16.54,0,0,1-1.91,5.42l1.63,1a18.73,18.73,0,0,0,2.16-6.15Z" />
  <path class="wellness-and-fitness-logo-shape-2" d="M36.31,34.9a16.93,16.93,0,0,1-3.79,3.72l1,1.58A18.92,18.92,0,0,0,37.87,36Z" />
  <path class="wellness-and-fitness-logo-shape-2" d="M30.24,9.8a16.7,16.7,0,0,1,4.33,3.07l1.37-1.31A18.72,18.72,0,0,0,31,8.07Z" />
</svg>
