<svg width="50" height="50" viewBox="0 0 50 50" fill="none" xmlns="http://www.w3.org/2000/svg">
<path d="M25 49C38.2548 49 49 38.2548 49 25C49 11.7452 38.2548 1 25 1C11.7452 1 1 11.7452 1 25C1 38.2548 11.7452 49 25 49Z" stroke="#F9423A" stroke-width="2"/>
<path d="M13.0541 21.7282C14.5068 21.7282 15.6844 20.5506 15.6844 19.0979C15.6844 17.6453 14.5068 16.4677 13.0541 16.4677C11.6014 16.4677 10.4238 17.6453 10.4238 19.0979C10.4238 20.5506 11.6014 21.7282 13.0541 21.7282Z" fill="#F9423A"/>
<path d="M34.4108 42.6431L34.4283 42.6301L24.8283 26.3348C24.694 26.1558 24.3444 25.6991 24.2257 25.5837C23.5881 24.9642 23.4376 25.1335 23.1516 24.0081C23.0855 23.6744 22.9944 23.3461 22.8791 23.026L13.7059 7.44484L13.6599 7.50193C13.544 7.39831 13.4084 7.31926 13.2611 7.26954C13.1139 7.21982 12.958 7.20046 12.8031 7.21264C12.6481 7.22482 12.4973 7.26829 12.3596 7.34041C12.2219 7.41253 12.1003 7.5118 12.002 7.63225C11.9038 7.75269 11.831 7.8918 11.788 8.04116C11.745 8.19053 11.7328 8.34706 11.752 8.5013C11.7712 8.65553 11.8215 8.80428 11.8998 8.93854C11.9781 9.0728 12.0828 9.1898 12.2076 9.28247L18.0597 19.7497L14.0082 23.2005L12.0156 28.919C11.9769 28.9984 11.9475 29.082 11.928 29.1681V29.172C11.9121 29.2499 11.9038 29.3292 11.9033 29.4087C11.9033 29.5602 11.9332 29.7103 11.9912 29.8502C12.0492 29.9902 12.1342 30.1174 12.2414 30.2245C12.3485 30.3316 12.4757 30.4165 12.6157 30.4744C12.7557 30.5324 12.9058 30.5621 13.0573 30.562L18.8179 30.7028L14.9656 34.9307C14.9656 34.9307 14.6043 35.2816 14.6095 35.5047C14.6095 35.6124 14.6847 43.3073 14.6847 43.3073H14.6951C14.7214 43.6025 14.8606 43.8762 15.0837 44.0713C15.3068 44.2665 15.5965 44.368 15.8926 44.3548C16.1887 44.3416 16.4682 44.2146 16.673 44.0004C16.8778 43.7862 16.9921 43.5012 16.992 43.2049L17.0102 36.1047L23.3124 31.4533L32.4908 43.897C32.6655 44.1315 32.923 44.2905 33.2109 44.3418C33.4988 44.393 33.7954 44.3325 34.0402 44.1726C34.285 44.0127 34.4597 43.7655 34.5285 43.4813C34.5974 43.1971 34.5553 42.8973 34.4108 42.6431V42.6431ZM14.9624 28.5674L16.0125 25.7873L19.0132 28.5674H14.9624Z" fill="#F9423A"/>
<path d="M16.8846 10.5527C18.5938 9.64814 20.4466 9.04618 22.3611 8.77342L22.1503 6.89233C19.9795 7.19334 17.8789 7.87538 15.9453 8.90704L16.8846 10.5527Z" fill="#F9423A"/>
<path d="M41.4676 23.5139C41.5643 24.3591 41.5966 25.2104 41.5643 26.0605L43.4564 26.1903C43.4948 25.2259 43.4594 24.2601 43.3506 23.3012C43.289 22.766 43.2008 22.2406 43.097 21.7211L41.249 22.1466C41.3385 22.5954 41.4112 23.0508 41.4676 23.5139Z" fill="#F9423A"/>
<path d="M24.5192 8.59757C26.4521 8.56729 28.3756 8.8728 30.204 9.50049L30.8708 7.72449C28.8003 7.00911 26.6198 6.66502 24.4297 6.70806L24.5192 8.59757Z" fill="#F9423A"/>
<path d="M37.96 14.9991C39.1599 16.516 40.0876 18.2297 40.7018 20.0637L42.518 19.5169C41.8286 17.4359 40.7768 15.4931 39.411 13.7783L37.96 14.9991Z" fill="#F9423A"/>
<path d="M41.3419 28.2024C41.0217 30.1073 40.3748 31.9425 39.4297 33.627L41.0559 34.6C42.1331 32.6933 42.866 30.6118 43.221 28.4508L41.3419 28.2024Z" fill="#F9423A"/>
<path d="M38.2578 35.436C37.1977 36.866 35.9178 38.1192 34.4658 39.1489L35.5127 40.731C37.1644 39.5655 38.6177 38.1419 39.8172 36.5147L38.2578 35.436Z" fill="#F9423A"/>
<path d="M32.1904 10.332C33.7865 11.1196 35.2482 12.1544 36.5215 13.3981L37.8882 12.0872C36.4473 10.6691 34.7867 9.49308 32.9708 8.60461L32.1904 10.332Z" fill="#F9423A"/>
</svg>
