<svg width="26" height="26" viewBox="0 0 26 26" fill="none" xmlns="http://www.w3.org/2000/svg">
<path d="M13.0001 1.08309C11.7182 1.07779 10.4479 1.32636 9.26263 1.81446C8.07731 2.30257 7.00037 3.02055 6.09394 3.92698C5.18752 4.83341 4.46954 5.91034 3.98143 7.09566C3.49333 8.28098 3.24476 9.55122 3.25006 10.8331V18.4164C3.24212 18.8454 3.32076 19.2716 3.48128 19.6695C3.6418 20.0674 3.88089 20.4288 4.18428 20.7322C4.48767 21.0356 4.84911 21.2747 5.24701 21.4352C5.6449 21.5957 6.07108 21.6744 6.50006 21.6664H9.75006V12.9998H5.41672V10.8331C5.41672 8.82187 6.21568 6.89302 7.63783 5.47086C9.05998 4.04871 10.9888 3.24976 13.0001 3.24976C15.0113 3.24976 16.9401 4.04871 18.3623 5.47086C19.7844 6.89302 20.5834 8.82187 20.5834 10.8331V12.9998H16.2501V21.6664H20.5834V22.7498H13.0001V24.9164H19.5001C19.929 24.9244 20.3552 24.8457 20.7531 24.6852C21.151 24.5247 21.5124 24.2856 21.8158 23.9822C22.1192 23.6788 22.3583 23.3174 22.5188 22.9195C22.6794 22.5216 22.758 22.0954 22.7501 21.6664V10.8331C22.7554 9.55122 22.5068 8.28098 22.0187 7.09566C21.5306 5.91034 20.8126 4.83341 19.9062 3.92698C18.9997 3.02055 17.9228 2.30257 16.7375 1.81446C15.5522 1.32636 14.2819 1.07779 13.0001 1.08309Z" fill="white"/>
</svg>
