<svg width="26" height="26" viewBox="0 0 26 26" fill="none" xmlns="http://www.w3.org/2000/svg">
<path d="M21.6667 7.04183H17.3334V4.87516C17.3316 4.30105 17.1028 3.75095 16.6969 3.34499C16.2909 2.93903 15.7408 2.71021 15.1667 2.7085H10.8334C10.2592 2.71021 9.70914 2.93903 9.30318 3.34499C8.89723 3.75095 8.6684 4.30105 8.66669 4.87516V7.04183H4.33335C3.75925 7.04354 3.20914 7.27237 2.80318 7.67833C2.39723 8.08428 2.1684 8.63439 2.16669 9.2085V21.1252C2.1684 21.6993 2.39723 22.2494 2.80318 22.6553C3.20914 23.0613 3.75925 23.2901 4.33335 23.2918H21.6667C22.2408 23.2901 22.7909 23.0613 23.1969 22.6553C23.6028 22.2494 23.8316 21.6993 23.8334 21.1252V9.2085C23.8316 8.63439 23.6028 8.08428 23.1969 7.67833C22.7909 7.27237 22.2408 7.04354 21.6667 7.04183ZM15.1667 7.04183H10.8334V4.87516H15.1667V7.04183Z" fill="white"/>
<path d="M14.1917 13.975H17.3334V16.1416H14.1917V19.7166H11.8084V16.1416H8.66669V13.975H11.8084V10.5083H14.1917V13.975Z" fill="url(#paint0_linear)"/>
<path d="M5.63335 7.04168H6.82502V7.69168H7.47502V7.04168C7.4787 6.95534 7.4644 6.86917 7.43304 6.78865C7.40168 6.70812 7.35393 6.63499 7.29282 6.57388C7.23171 6.51277 7.15858 6.46502 7.07805 6.43366C6.99752 6.4023 6.91136 6.388 6.82502 6.39168H5.63335C5.54701 6.388 5.46085 6.4023 5.38032 6.43366C5.2998 6.46502 5.22666 6.51277 5.16555 6.57388C5.10445 6.63499 5.0567 6.70812 5.02533 6.78865C4.99397 6.86917 4.97967 6.95534 4.98335 7.04168V7.69168H5.63335V7.04168Z" fill="white"/>
<path d="M19.0667 7.04168H20.2584V7.69168H20.9084V7.04168C20.912 6.95534 20.8978 6.86917 20.8664 6.78865C20.835 6.70812 20.7873 6.63499 20.7262 6.57388C20.6651 6.51277 20.5919 6.46502 20.5114 6.43366C20.4309 6.4023 20.3447 6.388 20.2584 6.39168H19.0667C18.9804 6.388 18.8942 6.4023 18.8137 6.43366C18.7331 6.46502 18.66 6.51277 18.5989 6.57388C18.5378 6.63499 18.49 6.70812 18.4587 6.78865C18.4273 6.86917 18.413 6.95534 18.4167 7.04168V7.69168H19.0667V7.04168Z" fill="white"/>
<defs>
<linearGradient id="paint0_linear" x1="8.66669" y1="10.5083" x2="18.7609" y2="12.507" gradientUnits="userSpaceOnUse">
<stop stop-color="#022639"/>
<stop offset="1" stop-color="#003C5C"/>
</linearGradient>
</defs>
</svg>
