<svg width="50" height="50" viewBox="0 0 50 50" fill="none" xmlns="http://www.w3.org/2000/svg">
<path d="M25 49C38.2548 49 49 38.2548 49 25C49 11.7452 38.2548 1 25 1C11.7452 1 1 11.7452 1 25C1 38.2548 11.7452 49 25 49Z" stroke="white" stroke-width="2"/>
<path d="M24.906 32.5555L18.016 24.2962L21.0835 21.7016L24.906 26.7611L38.4212 14.3278C37.8427 13.9033 37.2196 13.5433 36.5628 13.2543C34.5558 12.4686 32.3498 12.3472 30.2687 12.9077C28.1876 13.4682 26.341 14.6811 25 16.3684C23.6589 14.6814 21.8124 13.4688 19.7315 12.9084C17.6505 12.348 15.4447 12.4695 13.4378 13.2549C4.80303 17.1254 10.9373 26.562 10.9373 26.562L25 42.2774L39.064 26.562C39.064 26.562 42.1496 21.8132 40.8601 17.6709L24.906 32.5555Z" fill="white"/>
</svg>
